<svg xmlns="http://www.w3.org/2000/svg" xmlns:xlink="http://www.w3.org/1999/xlink" width="6912" zoomAndPan="magnify" viewBox="0 0 5184 2592.000001" height="3456" preserveAspectRatio="xMidYMid meet" version="1.0"><defs><g/><clipPath id="id1"><path d="M 1596.6875 427 L 3432 427 L 3432 2262.488281 L 1596.6875 2262.488281 Z M 1596.6875 427 " clip-rule="nonzero"/></clipPath><clipPath id="id2"><path d="M 1691.21875 328.339844 L 3587.167969 328.339844 L 3587.167969 2225 L 1691.21875 2225 Z M 1691.21875 328.339844 " clip-rule="nonzero"/></clipPath><clipPath id="id3"><path d="M 2344 685.605469 L 2844.792969 685.605469 L 2844.792969 1358.847656 L 2344 1358.847656 Z M 2344 685.605469 " clip-rule="nonzero"/></clipPath><clipPath id="id4"><path d="M 2559 570.882812 L 2674 570.882812 L 2674 765 L 2559 765 Z M 2559 570.882812 " clip-rule="nonzero"/></clipPath><clipPath id="id5"><path d="M 2365.140625 770 L 2548 770 L 2548 878 L 2365.140625 878 Z M 2365.140625 770 " clip-rule="nonzero"/></clipPath></defs><g clip-path="url(#id1)"><path fill="#ebebeb" d="M 2514.105469 427.871094 C 3020.792969 427.871094 3431.539062 838.566406 3431.539062 1345.179688 C 3431.539062 1851.792969 3020.792969 2262.488281 2514.105469 2262.488281 C 2007.433594 2262.488281 1596.6875 1851.792969 1596.6875 1345.179688 C 1596.6875 838.566406 2007.433594 427.871094 2514.105469 427.871094 " fill-opacity="1" fill-rule="nonzero"/></g><g clip-path="url(#id2)"><path fill="#00c2cb" d="M 3525.617188 1275.910156 C 3525.058594 1460.375 3467.789062 1639.058594 3361.652344 1789.859375 C 3259.527344 1934.960938 3110.988281 2047.316406 2944.660156 2108.429688 C 2769.328125 2172.835938 2575.835938 2179.125 2396.230469 2128.753906 C 2223.0625 2080.175781 2069.066406 1976.925781 1954.179688 1839.160156 C 1715.429688 1552.871094 1689.355469 1133.601562 1880.871094 816.09375 C 1973.316406 662.820312 2112.65625 541.605469 2275.015625 467.152344 C 2442.949219 390.128906 2636.488281 370.5625 2817.089844 407.226562 C 2994.09375 443.167969 3156.101562 534.394531 3280.976562 664.441406 C 3406.476562 795.160156 3487.441406 963.410156 3515.777344 1141.980469 C 3522.792969 1186.191406 3525.492188 1231.15625 3525.617188 1275.910156 C 3525.746094 1315.65625 3587.398438 1315.675781 3587.269531 1275.910156 C 3586.691406 1088.621094 3531.367188 904.335938 3427.140625 748.589844 C 3326.042969 597.53125 3181.148438 476.925781 3014.195312 405.136719 C 2838.363281 329.53125 2643.363281 309.847656 2455.519531 345.597656 C 2275.273438 379.902344 2107.46875 470.378906 1976.175781 597.917969 C 1704.445312 861.8125 1617.621094 1277.4375 1758.761719 1628.542969 C 1827.265625 1798.960938 1944.480469 1945.21875 2093.902344 2051.667969 C 2245.765625 2159.863281 2429.914062 2218.570312 2615.875 2223.753906 C 2990.753906 2234.1875 3345.066406 2011.164062 3501.101562 1670.988281 C 3557.921875 1547.140625 3586.851562 1412.105469 3587.269531 1275.910156 C 3587.398438 1236.148438 3525.746094 1236.164062 3525.617188 1275.910156 " fill-opacity="1" fill-rule="nonzero"/></g><g clip-path="url(#id3)"><path fill="#737373" d="M 2844.054688 1351.675781 C 2827.773438 1320.480469 2811.976562 1289.039062 2796.316406 1257.535156 C 2777.664062 1220.011719 2755.351562 1178.90625 2753.785156 1135.910156 C 2753.640625 1131.996094 2753.355469 1123.929688 2753.074219 1123.683594 C 2753.089844 1107.867188 2752.859375 1091.621094 2747.234375 1076.363281 C 2741.207031 1060.019531 2727.207031 1048.480469 2714.554688 1038.941406 C 2699.617188 1027.679688 2683.015625 1018.085938 2666.539062 1011.179688 C 2658.152344 1007.671875 2649.324219 1004.964844 2640.785156 1002.335938 L 2637.023438 1001.183594 C 2631.867188 999.585938 2627.589844 998.214844 2623.550781 996.878906 C 2619.148438 995.417969 2614.140625 993.644531 2613.597656 993.292969 L 2613.222656 993.015625 C 2613.113281 992.933594 2612.992188 992.847656 2612.816406 992.757812 L 2612.59375 992.648438 C 2570.953125 977.535156 2536.683594 956.046875 2510.75 928.792969 C 2486.34375 903.144531 2463.199219 861.851562 2471.433594 822.886719 C 2477.699219 793.261719 2502.378906 766.777344 2532.875 756.984375 C 2539.410156 754.890625 2546.101562 753.828125 2552.765625 753.828125 C 2561.074219 753.828125 2568.992188 755.464844 2576.292969 758.707031 C 2591.210938 765.328125 2602.886719 779.4375 2611.003906 800.644531 C 2611.40625 801.703125 2612.378906 802.359375 2613.535156 802.359375 L 2613.75 802.359375 C 2614.902344 802.359375 2615.875 801.703125 2616.28125 800.644531 C 2624.398438 779.4375 2636.082031 765.328125 2650.992188 758.707031 C 2658.289062 755.464844 2666.207031 753.828125 2674.515625 753.828125 C 2681.179688 753.828125 2687.875 754.890625 2694.410156 756.984375 C 2724.902344 766.777344 2749.585938 793.261719 2755.851562 822.886719 C 2764.082031 861.851562 2740.933594 903.144531 2716.535156 928.792969 C 2709.542969 936.136719 2684.875 954.316406 2673.019531 963.042969 C 2670.851562 964.648438 2669.132812 965.90625 2668.054688 966.71875 C 2662.949219 970.539062 2657.546875 974.140625 2652.316406 977.621094 C 2647.769531 980.65625 2593.949219 1010.441406 2589.449219 1013.71875 C 2588.488281 1014.421875 2588.105469 1015.625 2588.480469 1016.777344 C 2588.847656 1017.878906 2589.773438 1018.613281 2590.8125 1018.621094 C 2591.308594 1018.621094 2591.800781 1018.445312 2592.25 1018.125 C 2597.269531 1014.46875 2651.628906 984.292969 2656.699219 980.890625 C 2659.8125 978.804688 2662.933594 976.71875 2666.019531 974.585938 C 2666.765625 974.074219 2667.96875 973.300781 2669.574219 972.285156 C 2715.484375 943.074219 2743.894531 912.058594 2754.007812 880.085938 C 2766.5 840.636719 2764.328125 814.429688 2746.523438 789.636719 C 2728.945312 765.164062 2702.328125 749.457031 2677.058594 748.636719 C 2676.316406 748.613281 2675.582031 748.597656 2674.847656 748.597656 C 2648.207031 748.597656 2626.539062 764.5 2613.640625 793.4375 C 2600.75 764.5 2579.078125 748.597656 2552.4375 748.597656 C 2551.703125 748.597656 2550.96875 748.613281 2550.226562 748.636719 C 2524.964844 749.457031 2498.347656 765.164062 2480.757812 789.636719 C 2462.847656 814.582031 2460.261719 845.875 2473.292969 880.132812 C 2485.464844 912.132812 2509.984375 940.769531 2546.195312 965.265625 C 2564.273438 977.496094 2585.371094 988.117188 2608.914062 996.832031 C 2609.9375 997.878906 2614.589844 999.683594 2634.480469 1005.859375 L 2635.574219 1006.195312 C 2658.757812 1013.390625 2676.054688 1020.722656 2691.65625 1029.949219 C 2708.386719 1039.84375 2726.96875 1052.257812 2737.972656 1069.3125 C 2748.046875 1084.957031 2747.949219 1105.304688 2747.863281 1123.265625 L 2747.855469 1125.390625 C 2747.609375 1128.882812 2747.511719 1132.386719 2747.601562 1135.910156 C 2748.621094 1174.683594 2767.328125 1212.773438 2784.082031 1246.746094 C 2801.425781 1281.882812 2819.027344 1316.90625 2837.109375 1351.675781 L 2496.808594 1351.675781 C 2510.191406 1334.9375 2517.789062 1312.425781 2522.355469 1292.164062 C 2526.867188 1272.121094 2530.367188 1247 2526.171875 1226.722656 C 2524.160156 1217 2516.011719 1209.585938 2507.375 1205.546875 C 2490.117188 1197.480469 2468.410156 1202.230469 2449.898438 1200.210938 C 2431.855469 1198.246094 2401.773438 1192.34375 2399.128906 1170.183594 C 2397.726562 1158.484375 2398.339844 1146.328125 2399.625 1134.65625 C 2400.207031 1129.375 2401.917969 1123.457031 2400.574219 1118.171875 C 2398.210938 1108.898438 2385.273438 1109.984375 2387.15625 1097.425781 C 2387.890625 1092.53125 2396.710938 1089.734375 2390.320312 1084.796875 C 2384.378906 1080.199219 2374.1875 1076.996094 2381.9375 1066.792969 C 2384.652344 1063.222656 2386.160156 1058.558594 2387.414062 1054.316406 C 2388.929688 1049.191406 2390.382812 1039.46875 2384.238281 1036.515625 C 2374.261719 1031.714844 2362.558594 1034.71875 2353.621094 1026.6875 C 2344.042969 1018.085938 2354.074219 1004.445312 2359.191406 996.402344 C 2369.382812 980.394531 2379.128906 964.035156 2388.019531 947.261719 C 2391.324219 941.015625 2394.5 934.648438 2396.933594 927.988281 C 2400.074219 919.402344 2397.292969 909.878906 2395.378906 901.324219 C 2391.300781 883.097656 2397.925781 862.5625 2402.171875 844.773438 C 2403.410156 839.558594 2404.574219 834.324219 2405.996094 829.15625 C 2412.96875 803.84375 2425.324219 780.082031 2442.253906 760.003906 C 2470.179688 726.910156 2509.890625 707.921875 2551.863281 699.753906 C 2568.800781 696.460938 2590.300781 694.082031 2608.347656 692.90625 L 2638.890625 692.292969 C 2659.339844 692.964844 2679.644531 695.519531 2699.328125 700.488281 C 2738.546875 710.398438 2773.851562 732.171875 2797.386719 765.371094 C 2825.125 804.492188 2836.378906 858.441406 2833.136719 905.648438 C 2830.09375 949.929688 2807.699219 988.15625 2786.332031 1025.859375 C 2782.136719 1033.261719 2777.847656 1040.867188 2773.707031 1048.648438 C 2773.976562 1048.800781 2774.242188 1048.964844 2774.511719 1049.117188 C 2776.171875 1048.097656 2778.167969 1048.421875 2780.148438 1049.382812 C 2785.640625 1039.261719 2791.410156 1029.429688 2796.8125 1019.914062 C 2817.300781 983.867188 2835.808594 947.644531 2839.320312 905.648438 C 2843.128906 860.101562 2831.574219 809.085938 2807.789062 769.953125 C 2788.503906 738.234375 2758.496094 715.449219 2724.222656 701.964844 C 2697.078125 691.285156 2667.875 686.898438 2638.636719 686.222656 L 2638.636719 686.207031 C 2638.636719 686.207031 2634.871094 685.980469 2632.738281 686.003906 L 2632.746094 685.996094 L 2632.707031 686.003906 C 2632.261719 686.003906 2631.878906 686.015625 2631.628906 686.039062 L 2615.828125 686.714844 C 2615.828125 686.636719 2614.707031 686.714844 2613.425781 686.714844 L 2613.242188 686.714844 L 2613.121094 686.734375 C 2607.527344 687.035156 2597.714844 687.4375 2592.320312 687.929688 C 2546.804688 692.070312 2501.746094 702.421875 2464.671875 730.375 C 2426.15625 759.402344 2405.738281 801.386719 2395.265625 847.21875 C 2391.414062 864.015625 2385.832031 882.523438 2388.761719 899.800781 C 2390.480469 909.984375 2393.855469 919.105469 2389.929688 929.082031 C 2386.480469 937.890625 2381.636719 946.253906 2377.039062 954.5 C 2368.578125 969.722656 2359.558594 984.707031 2350.003906 999.261719 C 2339.390625 1015.410156 2343.324219 1032.050781 2362.242188 1038.144531 C 2367.515625 1039.84375 2373.144531 1039.972656 2378.5625 1040.921875 C 2386.433594 1042.289062 2380.878906 1055.171875 2379.082031 1059.292969 C 2375.929688 1066.546875 2368.019531 1072.882812 2374.882812 1080.957031 C 2376.597656 1082.96875 2383.894531 1091.035156 2386.703125 1087.699219 C 2384.988281 1089.734375 2382.894531 1091.101562 2381.9375 1093.738281 C 2378.808594 1102.355469 2382.488281 1109.375 2389.144531 1114.953125 C 2395.132812 1119.960938 2395.109375 1121.660156 2394.132812 1129.183594 C 2392.6875 1140.304688 2392.082031 1151.328125 2392.464844 1162.542969 C 2393.082031 1180.617188 2401.199219 1192.117188 2418.230469 1198.902344 C 2436.332031 1206.113281 2456.414062 1207.910156 2475.746094 1207.574219 C 2491.898438 1207.289062 2513.082031 1208.207031 2519.609375 1226.25 C 2522.117188 1233.214844 2520.941406 1242.121094 2520.910156 1249.375 C 2520.847656 1263.214844 2519.242188 1276.996094 2516.394531 1290.523438 C 2512.792969 1307.601562 2506.535156 1324.214844 2497.582031 1339.210938 C 2494.996094 1343.539062 2492.160156 1347.949219 2488.714844 1351.675781 C 2487.4375 1353.058594 2488.714844 1358.652344 2488.714844 1358.652344 L 2844.765625 1358.652344 L 2844.765625 1351.675781 L 2844.054688 1351.675781 " fill-opacity="1" fill-rule="nonzero"/></g><path fill="#00c2cb" d="M 2567.71875 907.304688 C 2518.691406 915.367188 2473.289062 913.382812 2450.632812 899.664062 C 2463.722656 878.609375 2502.40625 863.316406 2551.433594 863.585938 C 2564.488281 864.253906 2577.292969 865.753906 2589.476562 867.84375 C 2574.496094 864.878906 2558.425781 862.789062 2541.960938 862.054688 C 2492.261719 862.261719 2453.164062 879.082031 2440.070312 901.902344 C 2463.210938 916.6875 2509.367188 918.664062 2559.066406 909.585938 C 2575.527344 907.386719 2590.828125 904.78125 2604.402344 902.097656 C 2593.101562 903.964844 2580.777344 905.753906 2567.71875 907.304688 " fill-opacity="1" fill-rule="nonzero"/><path fill="#00c2cb" d="M 2663.363281 907.652344 C 2712.386719 915.71875 2757.792969 913.734375 2780.449219 900.011719 C 2767.363281 878.957031 2728.675781 863.664062 2679.652344 863.933594 C 2666.59375 864.601562 2653.792969 866.101562 2641.605469 868.191406 C 2656.585938 865.230469 2672.65625 863.136719 2689.121094 862.402344 C 2738.824219 862.609375 2777.921875 879.429688 2791.015625 902.253906 C 2767.875 917.035156 2721.71875 919.015625 2672.015625 909.9375 C 2655.550781 907.734375 2640.253906 905.128906 2626.679688 902.445312 C 2637.984375 904.316406 2650.308594 906.105469 2663.363281 907.652344 " fill-opacity="1" fill-rule="nonzero"/><path fill="#00c2cb" d="M 2578.074219 912.921875 C 2532.734375 933.25 2488.328125 942.9375 2462.921875 935.457031 C 2470.203125 911.753906 2503.703125 887.085938 2551.167969 874.8125 C 2563.960938 872.125 2576.722656 870.304688 2589.039062 869.210938 C 2573.796875 870.175781 2557.726562 872.257812 2541.621094 875.753906 C 2493.621094 888.65625 2460.113281 914.914062 2453.28125 940.324219 C 2479.429688 948.703125 2524.558594 938.824219 2570.292969 917.339844 C 2585.648438 911.003906 2599.773438 904.578125 2612.214844 898.515625 C 2601.761719 903.207031 2590.304688 908.085938 2578.074219 912.921875 " fill-opacity="1" fill-rule="nonzero"/><path fill="#00c2cb" d="M 2653.308594 912.921875 C 2698.648438 933.25 2743.054688 942.9375 2768.460938 935.457031 C 2761.183594 911.753906 2727.683594 887.085938 2680.21875 874.8125 C 2667.421875 872.125 2654.660156 870.304688 2642.347656 869.210938 C 2657.582031 870.175781 2673.660156 872.257812 2689.761719 875.753906 C 2737.761719 888.65625 2771.269531 914.914062 2778.105469 940.324219 C 2751.957031 948.703125 2706.828125 938.824219 2661.09375 917.339844 C 2645.738281 911.003906 2631.609375 904.578125 2619.171875 898.515625 C 2629.625 903.207031 2641.082031 908.085938 2653.308594 912.921875 " fill-opacity="1" fill-rule="nonzero"/><g clip-path="url(#id4)"><path fill="#cb6ce6" d="M 2562.101562 718.6875 C 2562.101562 658.046875 2584.453125 606.039062 2616.28125 583.929688 C 2648.109375 606.039062 2670.460938 658.046875 2670.460938 718.6875 C 2670.460938 734.839844 2668.875 750.382812 2665.945312 764.910156 C 2670.605469 747.25 2673.183594 727.847656 2673.183594 707.480469 C 2673.183594 646 2649.707031 593.273438 2616.28125 570.863281 C 2582.855469 593.273438 2559.378906 646 2559.378906 707.480469 C 2559.378906 727.847656 2561.957031 747.25 2566.617188 764.910156 C 2563.6875 750.382812 2562.101562 734.839844 2562.101562 718.6875 " fill-opacity="1" fill-rule="nonzero"/></g><path fill="#cb6ce6" d="M 2517.867188 755.816406 C 2489.386719 706.445312 2483.148438 653.597656 2498.675781 620.632812 C 2534.96875 623.664062 2577.59375 655.488281 2606.078125 704.859375 C 2613.667969 718.007812 2619.675781 731.402344 2624.117188 744.605469 C 2619.613281 728.039062 2612.601562 711.03125 2603.03125 694.453125 C 2574.152344 644.402344 2530.277344 612.519531 2492.539062 609.996094 C 2475.851562 643.960938 2481.511719 697.925781 2510.386719 747.96875 C 2519.953125 764.546875 2531.167969 779.128906 2543.257812 791.316406 C 2534.050781 780.871094 2525.457031 768.964844 2517.867188 755.816406 " fill-opacity="1" fill-rule="nonzero"/><path fill="#cb6ce6" d="M 2495.339844 814.460938 C 2446.003906 785.957031 2414.191406 743.308594 2411.164062 706.992188 C 2444.109375 691.457031 2496.933594 697.699219 2546.269531 726.199219 C 2559.414062 733.789062 2571.3125 742.386719 2581.753906 751.601562 C 2569.574219 739.503906 2555 728.285156 2538.433594 718.710938 C 2488.410156 689.816406 2434.476562 684.15625 2400.535156 700.847656 C 2403.058594 738.613281 2434.925781 782.515625 2484.945312 811.410156 C 2501.515625 820.984375 2518.511719 828 2535.066406 832.507812 C 2521.871094 828.0625 2508.484375 822.054688 2495.339844 814.460938 " fill-opacity="1" fill-rule="nonzero"/><g clip-path="url(#id5)"><path fill="#cb6ce6" d="M 2504.484375 875.183594 C 2447.515625 875.183594 2398.652344 854.164062 2377.882812 824.226562 C 2398.652344 794.292969 2447.515625 773.269531 2504.484375 773.269531 C 2519.660156 773.269531 2534.261719 774.761719 2547.90625 777.515625 C 2531.316406 773.136719 2513.089844 770.710938 2493.953125 770.710938 C 2436.199219 770.710938 2386.660156 792.785156 2365.605469 824.226562 C 2386.660156 855.667969 2436.199219 877.746094 2493.957031 877.746094 C 2513.089844 877.746094 2531.316406 875.320312 2547.90625 870.9375 C 2534.261719 873.691406 2519.660156 875.183594 2504.484375 875.183594 " fill-opacity="1" fill-rule="nonzero"/></g><path fill="#cb6ce6" d="M 2718.460938 755.816406 C 2746.945312 706.445312 2753.183594 653.597656 2737.65625 620.632812 C 2701.363281 623.664062 2658.734375 655.488281 2630.246094 704.859375 C 2622.660156 718.007812 2616.652344 731.402344 2612.214844 744.605469 C 2616.71875 728.039062 2623.730469 711.03125 2633.296875 694.453125 C 2662.175781 644.402344 2706.054688 612.519531 2743.796875 609.996094 C 2760.480469 643.960938 2754.820312 697.925781 2725.941406 747.96875 C 2716.375 764.546875 2705.164062 779.128906 2693.074219 791.316406 C 2702.28125 780.871094 2710.871094 768.964844 2718.460938 755.816406 " fill-opacity="1" fill-rule="nonzero"/><path fill="#cb6ce6" d="M 2740.988281 814.460938 C 2790.328125 785.957031 2822.140625 743.308594 2825.164062 706.992188 C 2792.21875 691.457031 2739.398438 697.699219 2690.0625 726.199219 C 2676.921875 733.789062 2665.019531 742.386719 2654.578125 751.601562 C 2666.757812 739.503906 2681.328125 728.285156 2697.898438 718.710938 C 2747.917969 689.816406 2801.851562 684.15625 2835.796875 700.847656 C 2833.273438 738.613281 2801.40625 782.515625 2751.386719 811.410156 C 2734.816406 820.984375 2717.820312 828 2701.261719 832.507812 C 2714.457031 828.0625 2727.847656 822.054688 2740.988281 814.460938 " fill-opacity="1" fill-rule="nonzero"/><path fill="#cb6ce6" d="M 2731.847656 875.183594 C 2788.816406 875.183594 2837.679688 854.164062 2858.449219 824.226562 C 2837.679688 794.292969 2788.816406 773.269531 2731.847656 773.269531 C 2716.671875 773.269531 2702.074219 774.761719 2688.425781 777.515625 C 2705.015625 773.136719 2723.242188 770.710938 2742.375 770.710938 C 2800.136719 770.710938 2849.671875 792.785156 2870.726562 824.226562 C 2849.671875 855.667969 2800.136719 877.746094 2742.375 877.746094 C 2723.242188 877.746094 2705.015625 875.320312 2688.425781 870.9375 C 2702.074219 873.691406 2716.671875 875.183594 2731.847656 875.183594 " fill-opacity="1" fill-rule="nonzero"/><g fill="#000000" fill-opacity="1"><g transform="translate(1912.322701, 1610.400913)"><g><path d="M 71.28125 -181.453125 C 87.75 -181.453125 100.429688 -177.050781 109.328125 -168.25 C 118.222656 -159.445312 122.671875 -146.90625 122.671875 -130.625 C 122.671875 -111.3125 117.460938 -96.492188 107.046875 -86.171875 C 96.640625 -75.859375 81.6875 -70.703125 62.1875 -70.703125 L 36.921875 -70.703125 L 36.921875 0 L 31.234375 0 L 31.234375 -180.890625 Z M 70.703125 -76.390625 C 85.472656 -77.710938 96.878906 -83.15625 104.921875 -92.71875 C 112.972656 -102.28125 117 -114.914062 117 -130.625 C 117 -144.632812 113.210938 -155.519531 105.640625 -163.28125 C 98.066406 -171.039062 87.273438 -175.207031 73.265625 -175.78125 L 36.921875 -175.5 L 36.921875 -76.390625 Z M 70.703125 -76.390625 "/></g></g></g><g fill="#000000" fill-opacity="1"><g transform="translate(2049.758233, 1610.400913)"><g><path d="M 63.046875 -140 C 72.890625 -140 82.539062 -137.914062 92 -133.75 L 90.875 -128.640625 L 89.171875 -128.359375 C 80.648438 -132.515625 71.75 -134.59375 62.46875 -134.59375 C 55.082031 -134.59375 48.644531 -133.125 43.15625 -130.1875 C 37.664062 -127.257812 33.5 -123.476562 30.65625 -118.84375 C 27.820312 -114.207031 26.40625 -109.519531 26.40625 -104.78125 C 26.40625 -99.863281 27.875 -95.601562 30.8125 -92 C 33.75 -88.40625 37.296875 -85.378906 41.453125 -82.921875 C 45.617188 -80.460938 51.488281 -77.523438 59.0625 -74.109375 C 67.207031 -70.515625 73.785156 -67.203125 78.796875 -64.171875 C 83.816406 -61.148438 88.078125 -57.316406 91.578125 -52.671875 C 95.078125 -48.035156 96.828125 -42.40625 96.828125 -35.78125 C 96.828125 -29.34375 94.984375 -23.285156 91.296875 -17.609375 C 87.609375 -11.929688 82.398438 -7.429688 75.671875 -4.109375 C 68.953125 -0.796875 61.429688 0.859375 53.109375 0.859375 C 47.046875 0.859375 40.796875 -0.0390625 34.359375 -1.84375 C 27.921875 -3.644531 22.242188 -6.15625 17.328125 -9.375 L 17.609375 -14.765625 L 19.03125 -15.046875 C 23.757812 -11.640625 29.195312 -9.035156 35.34375 -7.234375 C 41.5 -5.441406 47.421875 -4.546875 53.109375 -4.546875 C 60.671875 -4.546875 67.335938 -6.007812 73.109375 -8.9375 C 78.890625 -11.875 83.34375 -15.707031 86.46875 -20.4375 C 89.59375 -25.175781 91.15625 -30.195312 91.15625 -35.5 C 91.15625 -40.800781 89.640625 -45.390625 86.609375 -49.265625 C 83.578125 -53.148438 79.882812 -56.367188 75.53125 -58.921875 C 71.175781 -61.472656 65.117188 -64.550781 57.359375 -68.15625 C 49.222656 -71.9375 42.785156 -75.242188 38.046875 -78.078125 C 33.316406 -80.921875 29.25 -84.566406 25.84375 -89.015625 C 22.4375 -93.472656 20.734375 -98.921875 20.734375 -105.359375 C 20.734375 -111.597656 22.53125 -117.367188 26.125 -122.671875 C 29.71875 -127.972656 34.734375 -132.1875 41.171875 -135.3125 C 47.609375 -138.4375 54.898438 -140 63.046875 -140 Z M 63.046875 -140 "/></g></g></g><g fill="#000000" fill-opacity="1"><g transform="translate(2164.477128, 1610.400913)"><g><path d="M 36.34375 0 L 30.671875 0 L 30.671875 -139.421875 L 36.34375 -139.421875 Z M 36.34375 0 "/></g></g></g><g fill="#000000" fill-opacity="1"><g transform="translate(2231.775134, 1610.400913)"><g><path d="M 78.65625 -140.28125 C 85.851562 -140.28125 93.046875 -139.191406 100.234375 -137.015625 C 107.429688 -134.835938 113.867188 -131.757812 119.546875 -127.78125 L 117.84375 -122.671875 L 116.140625 -122.671875 C 110.835938 -126.460938 104.96875 -129.445312 98.53125 -131.625 C 92.09375 -133.800781 85.46875 -134.890625 78.65625 -134.890625 C 60.289062 -134.890625 46.328125 -129.253906 36.765625 -117.984375 C 27.210938 -106.722656 22.4375 -90.488281 22.4375 -69.28125 C 22.4375 -48.269531 27.023438 -32.179688 36.203125 -21.015625 C 45.390625 -9.847656 58.59375 -4.265625 75.8125 -4.265625 C 83.195312 -4.265625 90.582031 -5.539062 97.96875 -8.09375 C 105.351562 -10.644531 112.070312 -14.191406 118.125 -18.734375 L 119.828125 -18.171875 L 119.265625 -13.0625 C 112.828125 -8.519531 105.820312 -5.015625 98.25 -2.546875 C 90.675781 -0.0859375 83.296875 1.140625 76.109375 1.140625 C 56.796875 1.140625 42.023438 -4.914062 31.796875 -17.03125 C 21.578125 -29.15625 16.46875 -46.570312 16.46875 -69.28125 C 16.46875 -92 21.816406 -109.507812 32.515625 -121.8125 C 43.210938 -134.125 58.59375 -140.28125 78.65625 -140.28125 Z M 78.65625 -140.28125 "/></g></g></g><g fill="#000000" fill-opacity="1"><g transform="translate(2364.383378, 1610.400913)"><g><path d="M 79.796875 -140.5625 C 99.296875 -140.5625 114.296875 -134.644531 124.796875 -122.8125 C 135.304688 -110.976562 140.5625 -94.082031 140.5625 -72.125 C 140.5625 -48.65625 135.070312 -30.578125 124.09375 -17.890625 C 113.113281 -5.203125 97.492188 1.140625 77.234375 1.140625 C 57.734375 1.140625 42.726562 -4.960938 32.21875 -17.171875 C 21.71875 -29.390625 16.46875 -46.757812 16.46875 -69.28125 C 16.46875 -92.195312 21.910156 -109.804688 32.796875 -122.109375 C 43.679688 -134.410156 59.347656 -140.5625 79.796875 -140.5625 Z M 79.515625 -134.890625 C 60.960938 -134.890625 46.8125 -129.300781 37.0625 -118.125 C 27.3125 -106.957031 22.4375 -90.773438 22.4375 -69.578125 C 22.4375 -48.367188 27.164062 -32.179688 36.625 -21.015625 C 46.09375 -9.847656 59.628906 -4.265625 77.234375 -4.265625 C 95.785156 -4.265625 110.03125 -10.035156 119.96875 -21.578125 C 129.914062 -33.128906 134.890625 -49.789062 134.890625 -71.5625 C 134.890625 -92.007812 130.109375 -107.675781 120.546875 -118.5625 C 110.984375 -129.445312 97.304688 -134.890625 79.515625 -134.890625 Z M 79.515625 -134.890625 "/></g></g></g><g fill="#000000" fill-opacity="1"><g transform="translate(2521.412007, 1610.400913)"><g><path d="M 158.734375 -49.984375 L 158.453125 0 L 153.0625 0 L 38.328125 -168.96875 L 37.203125 -168.96875 L 36.921875 -56.515625 L 36.921875 0 L 31.234375 0 L 31.234375 -53.953125 L 31.515625 -180.890625 L 36.921875 -180.890625 L 151.640625 -11.921875 L 152.78125 -11.921875 L 153.34375 -180.609375 L 159.015625 -181.171875 Z M 158.734375 -49.984375 "/></g></g></g><g fill="#000000" fill-opacity="1"><g transform="translate(2711.66368, 1610.400913)"><g><path d="M 105.0625 -4.546875 L 103.9375 0 L 30.671875 0 L 30.671875 -139.421875 L 103.359375 -139.421875 L 104.21875 -138.296875 L 103.078125 -133.75 L 36.34375 -134.03125 L 36.34375 -74.96875 L 91.71875 -74.96875 L 92.296875 -73.828125 L 91.4375 -69.28125 L 36.34375 -69.28125 L 36.34375 -5.390625 L 104.21875 -5.390625 Z M 105.0625 -4.546875 "/></g></g></g><g fill="#000000" fill-opacity="1"><g transform="translate(2828.654287, 1610.400913)"><g><path d="M 128.359375 -49.984375 C 128.734375 -33.890625 124.375 -21.390625 115.28125 -12.484375 C 106.195312 -3.585938 93.328125 0.859375 76.671875 0.859375 C 59.816406 0.859375 46.988281 -3.539062 38.1875 -12.34375 C 29.382812 -21.15625 25.078125 -33.703125 25.265625 -49.984375 L 25.5625 -70.421875 L 25.5625 -139.421875 L 31.515625 -139.421875 L 30.953125 -50.265625 C 30.765625 -35.492188 34.597656 -24.179688 42.453125 -16.328125 C 50.304688 -8.472656 61.710938 -4.546875 76.671875 -4.546875 C 91.628906 -4.546875 103.035156 -8.472656 110.890625 -16.328125 C 118.742188 -24.179688 122.671875 -35.492188 122.671875 -50.265625 L 122.671875 -139.421875 L 128.359375 -139.421875 Z M 128.359375 -49.984375 "/></g></g></g><g fill="#000000" fill-opacity="1"><g transform="translate(2982.275429, 1610.400913)"><g><path d="M 73.265625 -58.21875 C 85.191406 -39.46875 99.101562 -20.535156 115 -1.421875 L 115 -0.28125 L 111.03125 1.703125 L 109.328125 0.859375 C 93.234375 -19.023438 79.222656 -38.335938 67.296875 -57.078125 L 36.34375 -57.078125 L 36.34375 0 L 30.671875 0 L 30.671875 -139.421875 L 64.453125 -139.71875 C 78.085938 -139.71875 88.597656 -136.398438 95.984375 -129.765625 C 103.367188 -123.140625 107.0625 -113.675781 107.0625 -101.375 C 107.0625 -90.769531 104.125 -81.726562 98.25 -74.25 C 92.382812 -66.78125 84.054688 -61.4375 73.265625 -58.21875 Z M 36.34375 -62.46875 L 69 -62.1875 C 79.414062 -64.644531 87.367188 -69.234375 92.859375 -75.953125 C 98.347656 -82.679688 101.09375 -91.0625 101.09375 -101.09375 C 101.09375 -111.507812 98.0625 -119.554688 92 -125.234375 C 85.945312 -130.910156 77.144531 -134.03125 65.59375 -134.59375 L 36.34375 -134.3125 Z M 36.34375 -62.46875 "/></g></g></g><g fill="#000000" fill-opacity="1"><g transform="translate(3114.59973, 1610.400913)"><g><path d="M 79.796875 -140.5625 C 99.296875 -140.5625 114.296875 -134.644531 124.796875 -122.8125 C 135.304688 -110.976562 140.5625 -94.082031 140.5625 -72.125 C 140.5625 -48.65625 135.070312 -30.578125 124.09375 -17.890625 C 113.113281 -5.203125 97.492188 1.140625 77.234375 1.140625 C 57.734375 1.140625 42.726562 -4.960938 32.21875 -17.171875 C 21.71875 -29.390625 16.46875 -46.757812 16.46875 -69.28125 C 16.46875 -92.195312 21.910156 -109.804688 32.796875 -122.109375 C 43.679688 -134.410156 59.347656 -140.5625 79.796875 -140.5625 Z M 79.515625 -134.890625 C 60.960938 -134.890625 46.8125 -129.300781 37.0625 -118.125 C 27.3125 -106.957031 22.4375 -90.773438 22.4375 -69.578125 C 22.4375 -48.367188 27.164062 -32.179688 36.625 -21.015625 C 46.09375 -9.847656 59.628906 -4.265625 77.234375 -4.265625 C 95.785156 -4.265625 110.03125 -10.035156 119.96875 -21.578125 C 129.914062 -33.128906 134.890625 -49.789062 134.890625 -71.5625 C 134.890625 -92.007812 130.109375 -107.675781 120.546875 -118.5625 C 110.984375 -129.445312 97.304688 -134.890625 79.515625 -134.890625 Z M 79.515625 -134.890625 "/></g></g></g><g fill="#000000" fill-opacity="1"><g transform="translate(2183.08223, 2004.232955)"><g/></g></g><g fill="#000000" fill-opacity="1"><g transform="translate(2234.194629, 2004.232955)"><g/></g></g><g fill="#000000" fill-opacity="1"><g transform="translate(2285.307028, 2004.232955)"><g/></g></g><g fill="#000000" fill-opacity="1"><g transform="translate(2336.419427, 2004.232955)"><g/></g></g><g fill="#000000" fill-opacity="1"><g transform="translate(2387.531825, 2004.232955)"><g/></g></g><g fill="#000000" fill-opacity="1"><g transform="translate(2438.644224, 2004.232955)"><g/></g></g><g fill="#000000" fill-opacity="1"><g transform="translate(2489.756623, 2004.232955)"><g/></g></g><g fill="#000000" fill-opacity="1"><g transform="translate(2540.869022, 2004.232955)"><g/></g></g><g fill="#000000" fill-opacity="1"><g transform="translate(2591.98142, 2004.232955)"><g/></g></g><g fill="#000000" fill-opacity="1"><g transform="translate(2643.093819, 2004.232955)"><g/></g></g><g fill="#000000" fill-opacity="1"><g transform="translate(2694.206218, 2004.232955)"><g/></g></g><g fill="#000000" fill-opacity="1"><g transform="translate(2745.318616, 2004.232955)"><g/></g></g><g fill="#000000" fill-opacity="1"><g transform="translate(2796.431015, 2004.232955)"><g/></g></g><g fill="#000000" fill-opacity="1"><g transform="translate(2847.543414, 2004.232955)"><g/></g></g><g fill="#000000" fill-opacity="1"><g transform="translate(2898.655813, 2004.232955)"><g/></g></g><g fill="#000000" fill-opacity="1"><g transform="translate(2949.768211, 2004.232955)"><g/></g></g><g fill="#737373" fill-opacity="1"><g transform="translate(2478.346712, 1800.204442)"><g><path d="M 149.308594 -125.5625 C 148.976562 -126.160156 148.914062 -127.679688 148.597656 -127.972656 C 147.222656 -131.574219 144.011719 -135.402344 140.535156 -138.304688 C 135.484375 -142.363281 130.5625 -143.375 125.335938 -144.371094 C 122.277344 -144.546875 120.183594 -143.542969 117.75 -143.441406 C 115.3125 -143.339844 112.546875 -143.832031 109.835938 -143.105469 C 105.902344 -142.328125 101.984375 -141.25 98.078125 -139.863281 L 85.550781 -133.234375 C 82.847656 -132.203125 80.1875 -130.261719 77.230469 -128.003906 L 71.601562 -124.105469 C 70.421875 -123.140625 67.800781 -120.285156 66.300781 -119.609375 C 65.414062 -118.964844 63.613281 -118.277344 62.128906 -117.300781 C 60.050781 -115.992188 57.667969 -114.671875 56.820312 -113.109375 C 55.414062 -110.304688 54.234375 -109.339844 52.089844 -109.554688 C 52.296875 -104.683594 47.640625 -106.621094 49.886719 -103.972656 C 48.972656 -103.933594 47.449219 -103.871094 46.550781 -103.527344 C 45.664062 -102.878906 44.457031 -102.523438 43.886719 -101.582031 C 43.886719 -101.582031 44.191406 -101.597656 44.203125 -101.292969 C 42.203125 -98.15625 39.589844 -94.996094 36.890625 -93.96875 C 36.320312 -93.027344 36.105469 -90.886719 34.902344 -90.53125 C 33.101562 -89.84375 33.164062 -88.320312 33.214844 -87.101562 C 32.605469 -87.078125 32.035156 -86.136719 32.035156 -86.136719 L 26.042969 -76.429688 L 25.15625 -75.785156 C 26.09375 -75.214844 25.523438 -74.273438 24.609375 -74.234375 C 23.394531 -74.183594 23.113281 -73.5625 22.519531 -73.230469 L 19.707031 -67.625 C 19.402344 -67.609375 19.109375 -67.292969 19.125 -66.988281 C 17.957031 -65.71875 17.425781 -63.867188 16.90625 -61.710938 L 14.601562 -58.5625 C 15.640625 -55.558594 14.132812 -55.1875 14.121094 -55.492188 L 13.933594 -52.738281 C 13.375 -51.496094 13.160156 -49.351562 13.238281 -47.527344 C 14.246094 -38.113281 20.363281 -30.445312 26.648438 -26.136719 C 32.003906 -22.09375 40.070312 -18.773438 44.410156 -17.128906 C 51.226562 -14.671875 65.625 -13.144531 60.144531 -12.914062 L 60.167969 -12.304688 C 59.242188 -12.570312 58.710938 -10.71875 58.445312 -9.792969 C 56.632812 -9.410156 52.511719 -5.882812 51.636719 -4.929688 C 49.582031 -3.011719 46.921875 -1.070312 44.03125 2.710938 C 44.058594 3.320312 42.574219 4.296875 42.574219 4.296875 C 41.40625 5.566406 40.265625 7.445312 38.835938 9.640625 L 39.140625 9.628906 C 40.050781 9.589844 40.332031 8.96875 41.21875 8.320312 C 38.925781 11.773438 36.921875 14.90625 36.46875 18.585938 L 36.636719 22.542969 L 37.691406 25.851562 L 38.679688 27.640625 C 39.671875 29.429688 40.648438 30.910156 41.285156 31.496094 C 43.542969 34.449219 46.082031 36.78125 49.839844 39.0625 C 50.816406 40.546875 52.074219 41.40625 53.648438 42.5625 C 56.769531 44.257812 59.863281 45.347656 63.277344 46.726562 C 64.507812 46.980469 66.625 46.585938 68.148438 46.523438 C 69.0625 46.484375 70.597656 46.722656 71.546875 47.597656 C 72.15625 47.574219 72.792969 48.15625 72.792969 48.15625 C 74.644531 48.6875 75.214844 47.746094 76.988281 46.453125 C 78.789062 45.765625 81.53125 45.652344 84.5625 45.21875 C 86.996094 45.113281 93.566406 41.785156 96.28125 41.0625 C 99.578125 39.703125 110.953125 34.648438 114.132812 30.546875 C 115.339844 30.191406 117.164062 30.113281 118.964844 29.429688 L 118.941406 28.820312 C 121.589844 26.570312 140.175781 11.757812 142.429688 7.390625 L 146.675781 -0.414062 L 142.296875 -2.972656 L 140.839844 -1.386719 C 136.125 2.472656 122.277344 14.039062 115.699219 17.0625 C 112.414062 18.726562 108.546875 21.023438 105.855469 22.359375 C 100.175781 25.039062 95.710938 27.667969 90.628906 30.015625 C 81.953125 34.042969 73.785156 35.609375 65.527344 35.042969 C 62.484375 35.171875 59.742188 35.289062 57.574219 34.464844 C 56.039062 34.226562 54.160156 33.085938 53.832031 32.488281 C 51.570312 29.535156 50.984375 22.851562 52.03125 18.839844 C 52.90625 17.890625 52.832031 16.0625 53.402344 15.125 C 55.808594 14.410156 57.242188 12.214844 57.140625 9.78125 C 57.113281 9.171875 57.390625 8.550781 57.710938 8.84375 C 59.230469 8.777344 58.875 7.574219 60.054688 6.609375 L 60.878906 4.4375 C 64.402344 1.238281 66.972656 -2.835938 72.058594 -5.183594 C 76.546875 -7.203125 80.058594 -10.707031 84.601562 -11.507812 C 89.078125 -13.832031 93.933594 -14.34375 98.765625 -15.464844 L 99.375 -15.488281 C 99.058594 -15.78125 98.742188 -16.074219 97.828125 -16.035156 C 99.933594 -16.734375 101.734375 -17.417969 103.257812 -17.484375 C 105.070312 -17.863281 106.898438 -17.941406 108.722656 -18.019531 L 115.117188 -18.289062 C 118.160156 -18.417969 121.523438 -18.257812 124.261719 -18.371094 C 124.820312 -19.617188 125.085938 -20.542969 125.058594 -21.152344 C 124.851562 -26.023438 122.140625 -25.296875 120.25 -26.742188 C 119.320312 -27.007812 119.957031 -26.425781 119.320312 -27.007812 C 119.308594 -27.3125 119.917969 -27.335938 119.90625 -27.640625 C 111.9375 -28.523438 103.785156 -26.65625 94.980469 -25.671875 L 92.863281 -25.277344 C 92.847656 -25.582031 92.847656 -25.582031 92.53125 -25.875 L 83.753906 -24.28125 C 81.332031 -23.875 78.289062 -23.746094 75.5625 -23.324219 C 70.121094 -22.179688 63.6875 -22.824219 57.269531 -23.160156 C 48.085938 -23.992188 41.007812 -25.523438 33.417969 -31.910156 C 28.328125 -36.878906 22.472656 -45.476562 26.425781 -52.964844 L 26.402344 -53.574219 C 28.351562 -57.925781 30.011719 -61.960938 31.644531 -66.605469 C 31.910156 -67.53125 31.882812 -68.136719 32.757812 -69.089844 C 33.632812 -70.042969 34.480469 -71.601562 35.355469 -72.554688 L 40.234375 -79.777344 C 42.300781 -81.386719 44.964844 -83.332031 45.113281 -86.996094 L 45.40625 -87.3125 C 47.179688 -88.609375 49.578125 -89.625 50.121094 -91.171875 C 51.808594 -94.597656 54.164062 -96.527344 57.144531 -98.179688 C 58.628906 -99.15625 60.0625 -101.351562 61.53125 -102.636719 L 65.070312 -105.53125 L 68.3125 -108.105469 C 70.964844 -110.355469 73.019531 -112.269531 75.335938 -115.113281 C 75.335938 -115.113281 74.714844 -115.390625 74.675781 -116.304688 C 78.6875 -115.253906 79.851562 -116.523438 78.835938 -118.921875 L 77.617188 -118.871094 L 77.59375 -119.480469 L 80.332031 -119.59375 C 81.855469 -119.660156 82.78125 -119.394531 84.289062 -119.761719 C 85.507812 -119.8125 87.308594 -120.5 88.195312 -121.148438 C 89.691406 -121.820312 90.859375 -123.089844 92.660156 -123.777344 C 91.695312 -124.953125 91.390625 -124.941406 91.390625 -124.941406 C 94.710938 -125.691406 97.070312 -127.621094 100.382812 -128.675781 C 100.367188 -128.980469 100.632812 -129.90625 101.242188 -129.933594 C 103.640625 -130.949219 106.683594 -131.078125 109.082031 -132.09375 C 112.667969 -133.773438 116.742188 -131.199219 119.660156 -134.371094 L 120.214844 -135.617188 C 121.050781 -137.480469 125.339844 -137.054688 127.839844 -135.632812 C 140.261719 -130.363281 143.871094 -117.097656 138.871094 -105.601562 C 137.234375 -100.960938 136.109375 -98.777344 134.449219 -94.742188 L 132.433594 -91.910156 C 130.179688 -87.546875 126.667969 -84.042969 124.691406 -80.300781 C 122.96875 -77.789062 120.304688 -75.84375 118.570312 -73.636719 C 118 -72.699219 117.441406 -71.453125 118.0625 -71.175781 C 118.484375 -68.449219 118.800781 -68.15625 122.277344 -65.253906 C 123.253906 -63.769531 125.71875 -63.265625 126.894531 -64.230469 C 127.757812 -65.484375 129.546875 -66.476562 130.6875 -68.355469 C 132.15625 -69.636719 133.019531 -70.894531 134.183594 -72.164062 C 135.589844 -74.96875 137.605469 -77.796875 139.039062 -79.992188 C 141.039062 -83.125 143.042969 -86.261719 144.449219 -89.066406 C 147.3125 -93.457031 149.730469 -101.183594 151.035156 -106.421875 L 151.714844 -111.941406 C 151.8125 -116.824219 150.71875 -121.046875 149.308594 -125.5625 Z M 149.308594 -125.5625 "/></g></g></g><g fill="#737373" fill-opacity="1"><g transform="translate(2637.85917, 1793.454467)"><g><path d="M 50.738281 -62.226562 C 49.796875 -62.796875 48.210938 -64.253906 42.125 -63.996094 C 38.46875 -63.84375 36.988281 -62.863281 34.273438 -62.140625 L 31.597656 -60.503906 C 29.503906 -59.5 29.503906 -59.5 28.035156 -58.214844 C 27.199219 -56.351562 25.753906 -54.460938 24.601562 -52.886719 C 23.15625 -50.996094 23.878906 -48.28125 23.664062 -46.136719 C 22.5 -44.867188 22.957031 -41.226562 23.011719 -40.011719 L 24.332031 -37.625 C 24.089844 -36.089844 24.75 -34.898438 25.410156 -33.707031 C 27.050781 -31.03125 27.429688 -29.21875 28.804688 -25.617188 L 29.160156 -24.410156 L 29.832031 -22.914062 L 31.128906 -21.140625 L 33.109375 -17.566406 L 33.757812 -16.675781 L 38.480469 -5.898438 C 40.503906 -1.410156 41.199219 0.695312 41.0625 4.667969 C 41.472656 7.089844 41.585938 9.828125 41.09375 12.59375 C 40.867188 14.433594 40.347656 16.589844 38.917969 18.785156 C 36.621094 22.238281 34.835938 23.230469 29.089844 24.386719 C 27.277344 24.769531 24.816406 24.261719 23.253906 23.414062 C 20.714844 21.082031 18.835938 19.941406 18.722656 17.203125 C 19 16.578125 18.046875 15.703125 17.414062 15.121094 C 16.105469 13.042969 15.683594 10.316406 16.074219 5.113281 L 17.722656 0.773438 L 21.207031 -3.335938 L 20.785156 -6.0625 L 20.152344 -6.648438 L 20.140625 -6.953125 C 17.449219 -5.617188 17.132812 -5.910156 14.773438 -3.980469 C 12.113281 -2.039062 9.183594 0.832031 7.167969 3.660156 L 7.097656 9.152344 C 7.097656 9.152344 6.488281 9.179688 6.515625 9.789062 L 6.527344 10.09375 C 6.65625 13.136719 7.710938 16.449219 9.324219 18.515625 C 10.605469 19.984375 11.925781 22.367188 14.132812 24.105469 C 15.429688 25.878906 17.96875 28.210938 20.785156 29.921875 C 22.078125 31.699219 24.515625 31.59375 25.148438 32.179688 C 26.699219 32.722656 29.132812 32.621094 31.59375 33.125 C 34.347656 33.3125 36.492188 33.527344 38.292969 32.839844 L 41.296875 31.800781 C 40.96875 31.203125 40.664062 31.214844 40.648438 30.910156 C 41.5625 30.875 42.476562 30.835938 43.375 30.492188 C 45.175781 29.804688 48.105469 26.9375 50.109375 23.800781 C 52.160156 21.886719 52.640625 18.816406 52.628906 18.511719 C 52.855469 16.671875 54.882812 14.144531 53.613281 12.980469 C 54.160156 11.433594 53.828125 10.835938 53.484375 9.9375 C 53.902344 5.34375 54.117188 3.199219 53.007812 -1.328125 C 52.984375 -1.9375 52.058594 -2.203125 52.03125 -2.8125 C 52.589844 -4.054688 51.96875 -4.332031 51.332031 -4.917969 C 50.988281 -5.816406 50.34375 -6.703125 50.277344 -8.226562 L 49.234375 -11.234375 C 48.207031 -13.933594 47.585938 -14.210938 46.859375 -16.925781 C 46.820312 -17.839844 44.941406 -18.980469 45.207031 -19.90625 C 44.878906 -20.503906 43.953125 -20.769531 44.230469 -21.390625 L 42.65625 -22.542969 L 41.628906 -25.246094 L 40.953125 -26.742188 L 39.648438 -28.820312 L 39.570312 -30.648438 C 38.949219 -30.925781 38.933594 -31.230469 38.894531 -32.144531 C 38.859375 -33.058594 37.90625 -33.929688 37.855469 -35.148438 C 36.839844 -37.546875 35.847656 -39.332031 36.023438 -42.390625 C 35.007812 -44.789062 34.902344 -47.222656 35.738281 -49.089844 C 35.980469 -50.625 37.160156 -51.589844 38.046875 -52.234375 C 38.617188 -53.175781 39.503906 -53.824219 40.101562 -54.152344 C 41.277344 -55.117188 41.304688 -54.507812 44.007812 -55.539062 L 47.355469 -55.679688 C 51.046875 -54.921875 54.128906 -54.136719 55.105469 -52.652344 L 56.019531 -52.691406 L 56.007812 -52.996094 L 57.53125 -53.058594 L 57.859375 -52.464844 L 58.480469 -52.183594 C 58.429688 -53.402344 58.554688 -57.679688 50.738281 -62.226562 Z M 50.738281 -62.226562 "/></g></g></g><g fill="#737373" fill-opacity="1"><g transform="translate(2710.613914, 1790.375756)"><g><path d="M -12.863281 135.648438 C -11.660156 135.292969 -10.453125 134.9375 -9.859375 134.605469 C -9.921875 133.082031 -9.65625 132.15625 -9.402344 130.925781 C -9.402344 130.925781 -8.792969 130.902344 -8.78125 131.207031 C -8.488281 130.886719 -8.199219 130.570312 -8.210938 130.265625 C -7.667969 128.71875 -7.464844 126.269531 -7.226562 124.734375 C -6.960938 123.808594 -6.429688 121.957031 -6.769531 121.054688 C -7.46875 118.949219 -6.671875 116.171875 -6.75 114.347656 C -6.574219 111.289062 -5.5 107.886719 -5.296875 105.441406 C -5.335938 104.527344 -5.667969 103.929688 -5.667969 103.929688 C -5.148438 101.773438 -4.601562 100.226562 -4.085938 98.070312 L -5.328125 97.511719 C -2.96875 95.582031 -2.832031 91.613281 -3.785156 90.738281 C -3.226562 89.492188 -2.9375 89.175781 -2.972656 88.261719 C -2.746094 86.425781 -2.800781 85.207031 -2.292969 82.746094 C -2.304688 82.441406 -1.722656 81.804688 -1.75 81.195312 C -1.625 76.921875 -1.488281 72.953125 1.589844 66.417969 L 1.382812 61.546875 L 2.714844 56.914062 C 2.394531 56.625 2.371094 56.015625 2.359375 55.710938 C 2.890625 53.859375 3.117188 52.019531 3.621094 49.558594 C 4.457031 47.691406 5.242188 44.609375 5.722656 41.539062 C 5.960938 40.003906 5.59375 38.496094 5.820312 36.65625 C 5.515625 36.667969 5.515625 36.667969 4.894531 36.390625 C 5.503906 36.363281 5.796875 36.046875 6.097656 36.035156 C 5.78125 35.742188 5.476562 35.753906 4.855469 35.476562 C 6.949219 34.472656 8.570312 29.523438 7.476562 25.300781 C 9.59375 24.90625 8.617188 23.421875 8.882812 22.496094 C 9.425781 20.949219 9.984375 19.707031 8.738281 19.148438 C 9.03125 18.832031 9.945312 18.792969 9.929688 18.488281 C 10.464844 16.636719 10.703125 15.101562 11.222656 12.945312 C 11.222656 12.945312 10.917969 12.957031 10.601562 12.664062 L 10.296875 12.679688 C 13.339844 12.550781 12.90625 9.519531 14.351562 7.628906 C 13.753906 7.957031 15.390625 3.3125 16.25 2.058594 C 16.238281 1.753906 16.210938 1.144531 15.589844 0.863281 L 17.417969 0.789062 C 18.226562 -1.6875 21.28125 -8.828125 22.738281 -10.417969 C 25.652344 -13.589844 28.542969 -17.371094 30.808594 -21.433594 C 32.496094 -24.859375 35.476562 -26.507812 38.113281 -29.058594 C 39.886719 -30.355469 41.371094 -31.332031 42.816406 -33.222656 C 44.007812 -33.882812 44.867188 -35.140625 45.742188 -36.09375 L 46.351562 -36.117188 C 48.113281 -37.71875 49.914062 -38.402344 52.605469 -39.738281 C 54.074219 -41.019531 57.714844 -41.480469 58.996094 -40.007812 C 59.671875 -38.511719 60.671875 -36.417969 60.75 -34.59375 C 61.476562 -31.878906 60.347656 -29.695312 59.550781 -26.917969 C 59.578125 -26.308594 58.703125 -25.355469 58.449219 -24.125 L 58.5 -22.910156 C 56.804688 -19.789062 55.371094 -17.59375 53.648438 -15.078125 C 52.242188 -12.273438 49.589844 -10.027344 47.550781 -7.808594 C 46.105469 -5.914062 44.371094 -3.707031 41.351562 -2.96875 C 40.144531 -2.613281 38.292969 -3.144531 38.191406 -5.582031 C 37.835938 -6.785156 37.769531 -8.308594 35.945312 -8.230469 C 36.007812 -6.707031 34.828125 -5.742188 35.476562 -4.855469 C 35.910156 -1.824219 36.9375 0.875 39.425781 1.992188 L 40.046875 2.269531 C 40.429688 4.082031 41.355469 4.347656 42.597656 4.90625 C 44.453125 5.4375 46.316406 6.273438 47.851562 6.515625 C 48.167969 6.804688 49.070312 6.460938 49.679688 6.4375 C 52.0625 5.117188 53.863281 4.429688 56.234375 2.804688 L 62.394531 -2.945312 C 64.09375 -6.066406 66.425781 -8.605469 68.441406 -11.433594 C 69.527344 -14.53125 72.113281 -18.300781 72.582031 -21.675781 C 73.976562 -24.785156 72.882812 -29.007812 72.738281 -32.355469 C 72.6875 -33.574219 72.332031 -34.777344 72.269531 -36.300781 C 72.546875 -36.921875 72.535156 -37.226562 71.925781 -37.199219 C 71.175781 -40.523438 63.054688 -45.058594 62.75 -45.046875 C 60.589844 -45.566406 59.652344 -46.136719 58.117188 -46.375 C 56.277344 -46.601562 53.5 -47.398438 51.367188 -47.308594 C 48.324219 -47.179688 45.292969 -46.746094 41.71875 -44.765625 L 37 -40.90625 L 31.648438 -37.632812 C 31.054688 -37.300781 31.066406 -36.996094 30.8125 -35.765625 C 30.828125 -35.460938 29.9375 -34.8125 29.648438 -34.496094 C 22.753906 -24.445312 20.003906 -17.316406 20.308594 -17.328125 C 17.75 -12.949219 17.128906 -13.230469 16.28125 -11.667969 C 16.492188 -13.8125 17.027344 -15.664062 17.582031 -16.90625 L 17.558594 -17.515625 C 17.871094 -24.542969 18.730469 -25.800781 18.90625 -28.859375 L 19.515625 -28.882812 C 19.984375 -32.257812 20.804688 -34.425781 21.300781 -37.191406 C 21.589844 -37.511719 21.566406 -38.121094 21.855469 -38.4375 C 20.890625 -39.617188 20.867188 -40.226562 22.058594 -40.886719 C 22.324219 -41.8125 22.578125 -43.042969 22.550781 -43.652344 C 23.109375 -44.894531 23.070312 -45.808594 22.726562 -46.707031 L 21.644531 -50.625 C 20.65625 -52.414062 19.359375 -54.191406 16.632812 -53.769531 L 15.71875 -53.730469 C 13.878906 -53.957031 13.296875 -53.324219 13.082031 -51.179688 C 11.675781 -48.375 11.171875 -45.914062 10.359375 -43.441406 C 9.613281 -39.445312 8.566406 -35.433594 7.515625 -31.425781 C 7.046875 -28.050781 6.261719 -24.96875 6.085938 -21.910156 C 4.796875 -16.367188 4.40625 -11.164062 3.410156 -5.9375 C 3.21875 -3.1875 2.132812 -0.0898438 1.652344 2.980469 C 0.640625 7.902344 -0.398438 12.214844 -1.117188 16.820312 C -2.066406 23.265625 -3.304688 30.027344 -5.164062 36.511719 C -5.113281 37.726562 -5.367188 38.957031 -5.605469 40.492188 C -6.058594 44.171875 -9.070312 59.546875 -11.207031 66.652344 C -11.5 66.972656 -12.363281 68.226562 -11.726562 68.808594 C -11.066406 70.003906 -11.304688 71.539062 -12.167969 72.792969 C -12.738281 73.734375 -13.003906 74.660156 -13.257812 75.890625 C -12.648438 75.863281 -12.34375 75.851562 -11.417969 76.117188 C -13.207031 77.105469 -13.6875 80.175781 -12.351562 82.867188 C -12.960938 82.890625 -13.277344 82.601562 -13.582031 82.613281 C -16.289062 97.976562 -18.078125 113.300781 -21.988281 129.019531 L -19.105469 132.253906 L -16.960938 132.464844 C -15.375 133.925781 -14.105469 135.089844 -12.863281 135.648438 Z M -12.863281 135.648438 "/></g></g></g><g fill="#737373" fill-opacity="1"><g transform="translate(2794.327509, 1786.833308)"><g><path d="M 22.445312 -67.738281 C 24.324219 -66.597656 26.152344 -66.675781 27.648438 -67.347656 C 30.308594 -69.292969 32.972656 -71.234375 34.046875 -74.632812 C 35.125 -78.035156 33.765625 -81.332031 32.722656 -84.335938 C 32.023438 -86.441406 30.160156 -87.277344 26.824219 -86.832031 C 26.824219 -86.832031 25.605469 -86.78125 25.3125 -86.464844 C 21.445312 -84.164062 18.1875 -81.894531 16.859375 -77.261719 C 16.378906 -74.191406 17.089844 -71.78125 19.007812 -69.730469 C 19.960938 -68.855469 21.507812 -68.308594 22.445312 -67.738281 Z M 64.921875 -36.90625 C 66.328125 -39.707031 65.945312 -41.523438 65.3125 -42.105469 C 61.523438 -37.980469 57.707031 -34.464844 54.195312 -30.960938 C 49.808594 -26.503906 45.753906 -21.453125 41.0625 -16.988281 C 36.691406 -12.226562 31.390625 -7.734375 26.699219 -3.265625 C 24.355469 -1.03125 21.664062 0.304688 18.355469 1.359375 C 18.53125 -1.699219 19.328125 -4.476562 19.214844 -7.21875 C 19.386719 -10.273438 21.097656 -13.09375 20.070312 -15.792969 C 20.042969 -16.402344 20.335938 -16.71875 20.613281 -17.339844 C 20.867188 -18.570312 21.425781 -19.816406 21.980469 -21.058594 C 23.03125 -25.066406 24.09375 -28.773438 24.855469 -32.464844 C 25.398438 -34.011719 25.941406 -35.558594 25.867188 -37.386719 C 26.105469 -38.921875 26.027344 -40.75 25.367188 -41.941406 C 24.707031 -43.132812 23.132812 -44.285156 21.878906 -45.148438 C 20.898438 -46.628906 18.730469 -47.453125 17.753906 -48.9375 C 16.773438 -50.421875 15.886719 -49.773438 14.988281 -49.429688 C 13.769531 -49.378906 13.503906 -48.453125 13.859375 -47.246094 L 13.960938 -44.8125 C 12.683594 -38.964844 11.382812 -33.722656 10.394531 -28.191406 C 9.347656 -24.183594 8.296875 -20.175781 7.855469 -16.191406 C 6.5625 -10.648438 5.589844 -4.8125 6.417969 0.339844 C 6.773438 1.542969 7.714844 2.113281 8.070312 3.316406 C 8.703125 3.902344 9.351562 4.789062 9.695312 5.6875 C 10.023438 6.285156 10.0625 7.199219 10.683594 7.476562 C 12.882812 8.910156 14.214844 11.597656 17.285156 12.078125 C 19.441406 12.597656 21.003906 13.445312 23.410156 12.734375 C 25.492188 11.425781 27.582031 10.421875 29.371094 9.429688 C 31.171875 8.746094 32.984375 8.363281 34.152344 7.09375 C 35.925781 5.800781 37.398438 4.515625 38.550781 2.941406 C 40.273438 0.429688 42.304688 -2.09375 44.671875 -3.71875 L 46.132812 -5.308594 C 46.714844 -5.941406 46.980469 -6.867188 47.5625 -7.503906 L 50.707031 -12.515625 C 54.710938 -18.785156 55.203125 -21.550781 56.355469 -23.125 C 58.09375 -25.332031 64.339844 -36.269531 64.632812 -36.585938 Z M 64.921875 -36.90625 "/></g></g></g><g fill="#737373" fill-opacity="1"><g transform="translate(2855.818936, 1784.231219)"><g><path d="M 6.929688 5.195312 C 9.402344 6.007812 10.59375 5.347656 11.050781 1.667969 C 11.566406 -0.488281 11.476562 -2.621094 11.996094 -4.777344 C 12.792969 -7.554688 12.984375 -10.308594 14.070312 -13.40625 C 15.742188 -17.136719 18.039062 -20.585938 19.683594 -24.925781 C 21.660156 -28.667969 23.964844 -31.816406 25.96875 -34.949219 L 31.429688 -42.804688 C 32.886719 -44.394531 34.652344 -45.992188 36.414062 -47.59375 C 36.984375 -48.53125 37.539062 -49.773438 38.441406 -50.117188 C 40.214844 -51.414062 42.015625 -52.097656 43.171875 -53.671875 C 44.933594 -55.273438 46.773438 -55.042969 48.597656 -55.121094 C 52.632812 -53.464844 54.421875 -54.453125 54.421875 -54.453125 L 54.660156 -55.988281 C 53.988281 -57.484375 53.328125 -58.675781 52.070312 -59.539062 C 51.460938 -59.511719 51.132812 -60.109375 50.816406 -60.398438 C 49.546875 -61.566406 47.972656 -62.71875 46.398438 -63.875 C 42.65625 -65.847656 38.394531 -65.667969 34.5625 -62.457031 C 31.304688 -60.183594 28.058594 -57.609375 25.488281 -53.535156 C 23.445312 -51.3125 21.683594 -49.714844 20.277344 -46.910156 C 20.011719 -45.984375 18.832031 -45.019531 17.972656 -43.761719 C 17.90625 -45.285156 18.476562 -46.222656 18.4375 -47.136719 C 18.628906 -49.890625 18.207031 -52.617188 17.191406 -55.011719 C 15.78125 -59.527344 13.28125 -60.945312 10.285156 -59.601562 C 9.375 -59.5625 8.179688 -58.902344 7.613281 -57.960938 C 7.320312 -57.644531 7.371094 -56.425781 7.09375 -55.804688 C 6.664062 -51.519531 5.917969 -47.519531 5.488281 -43.234375 C 5.046875 -39.25 3.707031 -34.925781 3.277344 -30.636719 C 3.417969 -27.289062 2.34375 -23.886719 1.875 -20.511719 L -0.03125 -7.929688 C -0.777344 -3.933594 0.875 -0.953125 2.222656 2.039062 C 4.707031 3.15625 5.0625 4.359375 6.929688 5.195312 Z M 6.929688 5.195312 "/></g></g></g><g fill="#737373" fill-opacity="1"><g transform="translate(2915.483874, 1781.70642)"><g><path d="M 22.445312 -67.738281 C 24.324219 -66.597656 26.152344 -66.675781 27.648438 -67.347656 C 30.308594 -69.292969 32.972656 -71.234375 34.046875 -74.632812 C 35.125 -78.035156 33.765625 -81.332031 32.722656 -84.335938 C 32.023438 -86.441406 30.160156 -87.277344 26.824219 -86.832031 C 26.824219 -86.832031 25.605469 -86.78125 25.3125 -86.464844 C 21.445312 -84.164062 18.1875 -81.894531 16.859375 -77.261719 C 16.378906 -74.191406 17.089844 -71.78125 19.007812 -69.730469 C 19.960938 -68.855469 21.507812 -68.308594 22.445312 -67.738281 Z M 64.921875 -36.90625 C 66.328125 -39.707031 65.945312 -41.523438 65.3125 -42.105469 C 61.523438 -37.980469 57.707031 -34.464844 54.195312 -30.960938 C 49.808594 -26.503906 45.753906 -21.453125 41.0625 -16.988281 C 36.691406 -12.226562 31.390625 -7.734375 26.699219 -3.265625 C 24.355469 -1.03125 21.664062 0.304688 18.355469 1.359375 C 18.53125 -1.699219 19.328125 -4.476562 19.214844 -7.21875 C 19.386719 -10.273438 21.097656 -13.09375 20.070312 -15.792969 C 20.042969 -16.402344 20.335938 -16.71875 20.613281 -17.339844 C 20.867188 -18.570312 21.425781 -19.816406 21.980469 -21.058594 C 23.03125 -25.066406 24.09375 -28.773438 24.855469 -32.464844 C 25.398438 -34.011719 25.941406 -35.558594 25.867188 -37.386719 C 26.105469 -38.921875 26.027344 -40.75 25.367188 -41.941406 C 24.707031 -43.132812 23.132812 -44.285156 21.878906 -45.148438 C 20.898438 -46.628906 18.730469 -47.453125 17.753906 -48.9375 C 16.773438 -50.421875 15.886719 -49.773438 14.988281 -49.429688 C 13.769531 -49.378906 13.503906 -48.453125 13.859375 -47.246094 L 13.960938 -44.8125 C 12.683594 -38.964844 11.382812 -33.722656 10.394531 -28.191406 C 9.347656 -24.183594 8.296875 -20.175781 7.855469 -16.191406 C 6.5625 -10.648438 5.589844 -4.8125 6.417969 0.339844 C 6.773438 1.542969 7.714844 2.113281 8.070312 3.316406 C 8.703125 3.902344 9.351562 4.789062 9.695312 5.6875 C 10.023438 6.285156 10.0625 7.199219 10.683594 7.476562 C 12.882812 8.910156 14.214844 11.597656 17.285156 12.078125 C 19.441406 12.597656 21.003906 13.445312 23.410156 12.734375 C 25.492188 11.425781 27.582031 10.421875 29.371094 9.429688 C 31.171875 8.746094 32.984375 8.363281 34.152344 7.09375 C 35.925781 5.800781 37.398438 4.515625 38.550781 2.941406 C 40.273438 0.429688 42.304688 -2.09375 44.671875 -3.71875 L 46.132812 -5.308594 C 46.714844 -5.941406 46.980469 -6.867188 47.5625 -7.503906 L 50.707031 -12.515625 C 54.710938 -18.785156 55.203125 -21.550781 56.355469 -23.125 C 58.09375 -25.332031 64.339844 -36.269531 64.632812 -36.585938 Z M 64.921875 -36.90625 "/></g></g></g><g fill="#737373" fill-opacity="1"><g transform="translate(2976.975301, 1779.104331)"><g><path d="M 59.679688 -103.167969 C 61.492188 -103.546875 65.425781 -104.324219 66.679688 -103.464844 C 68.773438 -104.464844 71.816406 -104.59375 73.644531 -104.671875 L 74.238281 -105.003906 C 75.378906 -106.882812 79.933594 -107.378906 78.890625 -110.382812 C 77.953125 -110.953125 76.480469 -109.671875 75.886719 -109.34375 C 69.542969 -107.855469 67.707031 -108.082031 53.066406 -108.070312 C 51.863281 -107.714844 49.386719 -108.527344 45.113281 -108.648438 C 45.582031 -112.023438 46.429688 -113.585938 48.300781 -119.765625 C 49.65625 -123.785156 51.925781 -127.847656 52.683594 -131.539062 C 55.507812 -136.84375 57.710938 -142.425781 59.902344 -148.3125 C 60.726562 -150.480469 61.574219 -152.042969 59.074219 -153.460938 C 58.429688 -154.351562 57.183594 -154.90625 56.839844 -155.808594 C 56.433594 -158.230469 53.667969 -158.722656 51.167969 -160.140625 C 50.546875 -160.421875 49.9375 -160.394531 49.609375 -160.992188 C 48.378906 -161.242188 47.476562 -160.902344 46.945312 -159.046875 C 46.425781 -156.890625 45.335938 -153.796875 44.820312 -151.640625 C 43.96875 -150.078125 43.082031 -149.429688 43.132812 -148.214844 C 41.460938 -144.484375 40.996094 -141.109375 39.613281 -137.695312 C 38.855469 -134.003906 37.171875 -130.578125 36.386719 -127.492188 C 35.296875 -124.398438 34.195312 -121.605469 33.410156 -118.523438 C 31.714844 -115.402344 31.539062 -112.34375 29.839844 -109.222656 C 28.011719 -109.144531 25.882812 -109.054688 23.15625 -108.636719 L 17.34375 -109 C 15.175781 -109.824219 13.070312 -109.125 11.28125 -108.132812 C 10.6875 -107.804688 9.761719 -108.070312 9.457031 -108.054688 C 9.457031 -108.054688 8.226562 -108.308594 6.78125 -106.417969 C 5.285156 -105.746094 4.753906 -103.890625 4.792969 -102.980469 C 5.210938 -100.253906 8.585938 -99.785156 12.277344 -99.027344 C 18.089844 -98.664062 22.363281 -98.539062 26.320312 -98.707031 L 23.675781 -89.140625 L 15.222656 -58.285156 C 15.539062 -57.992188 15.566406 -57.382812 15.882812 -57.09375 L 15.273438 -57.066406 C 14.730469 -55.519531 13.855469 -54.566406 13.90625 -53.347656 C 12.855469 -49.339844 12.996094 -45.992188 11.921875 -42.589844 L 10.152344 -33.976562 C 9.695312 -30.296875 8.632812 -26.59375 9.09375 -22.953125 C 8.753906 -16.535156 8.097656 -10.40625 9.574219 -4.371094 C 11.050781 1.667969 12.523438 7.703125 16.078125 12.433594 C 16.714844 13.015625 17.347656 13.601562 17.996094 14.488281 C 20.546875 17.125 21.84375 18.898438 24.621094 19.695312 C 29 22.257812 29.898438 21.914062 34.453125 21.414062 L 33.84375 21.441406 C 35.671875 21.363281 36.265625 21.035156 36.835938 20.09375 C 38.257812 17.59375 40.917969 15.652344 39.875 12.644531 C 39.875 12.644531 36.300781 14.628906 33.851562 14.425781 C 31.125 14.847656 30.808594 14.554688 28.003906 13.148438 L 25.769531 10.804688 C 25.136719 10.21875 23.867188 9.054688 23.777344 6.921875 C 23.078125 4.816406 22.378906 2.710938 22.59375 0.570312 C 22.539062 -0.648438 22.503906 -1.5625 21.269531 -1.816406 C 22.464844 -2.476562 21.539062 -2.742188 20.902344 -3.324219 C 22.410156 -3.691406 21.875 -9.160156 20.59375 -10.628906 C 21.164062 -11.570312 21.722656 -12.8125 21.988281 -13.738281 C 21.363281 -14.019531 21.046875 -14.308594 21.351562 -14.324219 C 21.644531 -14.640625 21.921875 -15.261719 21.898438 -15.871094 C 21.792969 -18.304688 22.007812 -20.449219 22.804688 -23.226562 C 22.460938 -24.128906 22.703125 -25.664062 22.953125 -26.894531 C 22.917969 -27.808594 23.777344 -29.0625 23.753906 -29.671875 C 23.6875 -31.195312 24.523438 -33.058594 23.546875 -34.542969 C 24.117188 -35.484375 24.992188 -36.433594 25.257812 -37.359375 C 25.417969 -40.722656 26.496094 -44.121094 27.265625 -47.511719 C 27.191406 -49.335938 28.027344 -51.203125 28.863281 -53.066406 C 29.050781 -55.820312 30.445312 -58.929688 30.921875 -62 C 31.175781 -63.230469 31.734375 -64.472656 32.277344 -66.019531 C 32.808594 -67.871094 32.429688 -69.6875 33.25 -71.855469 C 33.226562 -72.464844 32.894531 -73.0625 33.199219 -73.074219 C 35 -73.761719 34.644531 -74.964844 34.3125 -75.5625 C 33.984375 -76.15625 34.566406 -76.792969 34.542969 -77.398438 C 35.707031 -78.667969 36.53125 -80.839844 36.175781 -82.042969 C 36.746094 -82.984375 37.328125 -83.617188 36.996094 -84.214844 C 36.335938 -85.40625 37.453125 -87.890625 38.644531 -88.554688 L 41.554688 -99.046875 L 44.902344 -99.1875 C 47.628906 -99.605469 52.210938 -99.496094 55.558594 -99.636719 C 59.503906 -100.109375 62.242188 -100.226562 63.765625 -100.289062 C 66.503906 -100.40625 69.230469 -100.828125 70.121094 -101.472656 L 74.660156 -102.277344 C 75.257812 -102.605469 75.546875 -102.921875 74.609375 -103.492188 C 68.546875 -102.628906 66.109375 -102.523438 54.25 -101.71875 L 54.53125 -102.339844 Z M 59.679688 -103.167969 "/></g></g></g><g fill="#737373" fill-opacity="1"><g transform="translate(3040.902072, 1776.399187)"><g><path d="M 85.285156 4.625 L 92.550781 3.402344 C 96.734375 1.394531 100.960938 0.300781 104.417969 -4.417969 C 104.417969 -4.417969 104.113281 -4.40625 104.101562 -4.710938 L 106.964844 -9.101562 C 108.488281 -9.164062 110.542969 -11.082031 110.476562 -12.605469 C 110.71875 -14.140625 111.273438 -15.382812 112.796875 -15.445312 C 113.40625 -15.472656 114 -15.804688 115.21875 -15.855469 C 113.988281 -16.109375 113.671875 -16.398438 113.355469 -16.691406 C 114.546875 -17.351562 113.582031 -18.53125 115.078125 -19.203125 C 115.964844 -19.851562 118.386719 -20.257812 117.078125 -22.339844 L 118.273438 -23 C 118.449219 -26.054688 120.832031 -27.375 122.277344 -29.265625 C 123.429688 -30.839844 123.617188 -33.59375 120.269531 -33.453125 L 116.175781 -29.3125 C 110.886719 -24.515625 105.285156 -20.007812 99.667969 -15.804688 C 96.714844 -13.546875 93.757812 -11.285156 90.476562 -9.625 C 85.402344 -6.96875 77.273438 -4.488281 73.78125 -7.695312 C 73.136719 -8.585938 72.792969 -9.484375 72.4375 -10.691406 C 70.65625 -16.714844 71.3125 -22.839844 73.503906 -28.726562 C 74.007812 -31.1875 74.832031 -33.359375 76.277344 -35.25 C 77.882812 -40.503906 69.308594 -41.359375 69.257812 -42.578125 L 62.863281 -42.308594 C 61.976562 -41.660156 61.394531 -41.023438 61.113281 -40.402344 C 59.367188 -38.5 57.933594 -36.304688 56.183594 -34.398438 C 53.269531 -31.226562 50.683594 -27.457031 47.769531 -24.285156 C 44.5625 -20.792969 42.253906 -17.648438 39.035156 -14.460938 C 36.691406 -12.226562 35.257812 -10.03125 31.097656 -7.414062 C 29.324219 -6.121094 26.914062 -5.410156 25.046875 -6.246094 C 22.546875 -7.664062 23.585938 -11.976562 24.6875 -14.769531 C 25.511719 -16.9375 28.589844 -23.472656 29.957031 -27.191406 C 32.984375 -34.941406 34.628906 -39.28125 32.015625 -43.441406 C 31.035156 -44.925781 28.574219 -45.429688 27 -46.582031 C 24.84375 -47.101562 22.714844 -47.011719 20.304688 -46.300781 C 18.503906 -45.613281 17.019531 -44.636719 15.839844 -43.671875 C 14.953125 -43.023438 13.761719 -42.363281 13.203125 -41.121094 C 12.964844 -39.585938 14.246094 -38.113281 15.554688 -36.035156 C 16.503906 -35.160156 18.929688 -35.566406 21.933594 -36.609375 C 22.9375 -34.519531 14.8125 -24.71875 12.75 -15.789062 C 11.449219 -10.546875 11.296875 -6.882812 14.585938 -1.226562 C 15.578125 0.5625 23.484375 7.242188 26.820312 6.792969 C 31.375 6.296875 34.910156 3.402344 39.097656 1.394531 C 46.144531 -5.003906 52.570312 -11.679688 57.792969 -18 C 58.441406 -17.113281 58.757812 -16.820312 58.480469 -16.199219 C 59.46875 -14.410156 60.15625 -12.609375 61.453125 -10.835938 C 61.78125 -10.238281 62.417969 -9.65625 63.0625 -8.769531 C 64.078125 -6.371094 65.097656 -3.972656 68.191406 -2.886719 C 70.042969 -2.355469 71.605469 -1.503906 72.898438 0.269531 C 72.925781 0.878906 74.472656 1.421875 75.71875 1.980469 C 76.644531 2.246094 77.886719 2.804688 78.824219 3.375 C 80.042969 3.324219 81.289062 3.878906 82.835938 4.425781 C 83.761719 4.691406 84.355469 4.359375 85.285156 4.625 Z M 85.285156 4.625 "/></g></g></g><g fill="#737373" fill-opacity="1"><g transform="translate(3158.709931, 1771.413996)"><g><path d="M 113.664062 -45.371094 L 112.332031 -48.058594 L 111.394531 -48.628906 C 108.425781 -46.675781 106.054688 -45.050781 104 -43.132812 C 97.191406 -38.269531 97.773438 -38.90625 90.664062 -34.027344 C 86.527344 -30.804688 82.078125 -27.871094 78.222656 -25.269531 C 74.089844 -22.042969 69.375 -18.183594 64.59375 -15.847656 C 63.402344 -15.1875 62.183594 -15.136719 61.285156 -14.792969 C 60.382812 -14.449219 59.773438 -14.421875 59.152344 -14.703125 C 57.59375 -15.550781 56.628906 -16.730469 56.269531 -17.933594 C 54.265625 -22.121094 54.070312 -26.6875 54.804688 -30.988281 C 55.082031 -31.609375 55.058594 -32.21875 55.347656 -32.535156 C 56.160156 -35.007812 55.710938 -38.34375 55.710938 -38.34375 C 55.011719 -40.449219 53.730469 -41.921875 51.878906 -42.453125 C 48.214844 -42.601562 46.183594 -40.078125 43.761719 -39.667969 C 45.15625 -42.777344 47.476562 -45.621094 46.382812 -49.84375 C 44.867188 -56.792969 37.511719 -57.703125 31.066406 -58.648438 C 25.308594 -57.796875 20.285156 -53.925781 16.800781 -49.8125 C 13.339844 -45.089844 9.539062 -41.269531 6.40625 -35.953125 C 5.824219 -35.320312 5.28125 -33.769531 4.128906 -32.195312 L 2.152344 -28.453125 C 1.632812 -26.296875 0.78125 -24.734375 0.554688 -22.898438 C 0.570312 -22.59375 0.570312 -22.59375 0.277344 -22.273438 C -0.253906 -20.421875 -0.796875 -18.875 -1.621094 -16.703125 C -2.644531 -12.085938 -1.566406 -8.167969 1.328125 -4.628906 C 3.195312 -3.792969 5.695312 -2.375 6.328125 -1.792969 C 7.253906 -1.527344 8.167969 -1.566406 8.777344 -1.589844 C 13.421875 0.0429688 18.597656 -0.175781 23.363281 -2.820312 C 28.144531 -5.15625 32.847656 -9.320312 36.386719 -12.214844 C 36.980469 -12.542969 37.246094 -13.46875 37.828125 -14.105469 C 39.960938 -14.195312 39.832031 -17.238281 41.910156 -18.546875 C 42.242188 -17.949219 42.265625 -17.34375 42.890625 -17.0625 C 43.867188 -15.582031 43.589844 -14.957031 45.492188 -13.210938 C 46.824219 -10.519531 49.007812 -9.394531 50.9375 -7.035156 C 51.863281 -6.769531 52.523438 -5.578125 53.449219 -5.3125 C 54.085938 -4.726562 55.910156 -4.804688 56.535156 -4.527344 C 57.765625 -4.273438 60.476562 -5 61.695312 -5.050781 C 62.609375 -5.089844 64.105469 -5.761719 64.410156 -5.773438 C 65.324219 -5.8125 66.820312 -6.488281 67.414062 -6.816406 C 68.898438 -7.796875 69.824219 -7.53125 71.613281 -8.519531 C 74.566406 -10.78125 77.28125 -11.503906 79.601562 -14.347656 L 86.675781 -20.136719 L 91.074219 -24.289062 C 91.976562 -24.628906 94.003906 -27.15625 94.292969 -27.472656 C 95.789062 -28.144531 96.945312 -29.71875 97.820312 -30.671875 C 98.707031 -31.320312 100.796875 -32.324219 102.269531 -33.605469 C 106.109375 -36.511719 110.8125 -40.675781 113.664062 -45.371094 Z M 39.746094 -33.703125 C 35.386719 -28.640625 33.410156 -24.898438 29.046875 -19.832031 C 26.144531 -16.355469 23.496094 -14.109375 19.601562 -12.417969 C 16.609375 -11.070312 11.144531 -10.535156 7.792969 -10.394531 C 9.058594 -16.546875 11.578125 -21.839844 14.113281 -26.824219 C 17.21875 -32.75 27.265625 -47.511719 36.335938 -49.417969 C 36.042969 -49.101562 34.175781 -35.601562 40.898438 -35.277344 L 41.203125 -35.289062 C 41.203125 -35.289062 40.050781 -33.71875 39.746094 -33.703125 Z M 39.746094 -33.703125 "/></g></g></g><g fill="#737373" fill-opacity="1"><g transform="translate(3257.33974, 1767.240349)"><g><path d="M 90.921875 -179.207031 C 90.25 -180.703125 90.1875 -182.226562 89.777344 -184.648438 C 90.070312 -184.964844 90.042969 -185.574219 89.726562 -185.867188 L 87.835938 -187.3125 C 86.566406 -188.476562 84.992188 -189.632812 83.445312 -190.175781 C 82.503906 -190.746094 80.957031 -191.289062 79.714844 -191.847656 C 75.402344 -192.882812 71.710938 -193.644531 68.503906 -190.152344 C 66.167969 -187.613281 63.546875 -184.757812 60.910156 -182.207031 C 58.285156 -179.351562 55.710938 -175.277344 53.75 -171.230469 L 42.804688 -148.808594 C 42.523438 -148.1875 41.917969 -148.160156 41.636719 -147.539062 L 39.421875 -142.261719 L 37.585938 -135.167969 C 37.332031 -133.9375 35.066406 -129.878906 34.46875 -129.546875 C 34.496094 -128.9375 27.976562 -110.058594 27.695312 -109.4375 C 26.554688 -107.558594 26.632812 -105.734375 26.101562 -103.882812 C 24.988281 -101.394531 24.191406 -98.617188 23.0625 -96.433594 C 22.023438 -92.121094 20.402344 -87.171875 19.378906 -82.554688 C 18.023438 -78.53125 17.597656 -74.242188 16.824219 -70.855469 C 16.09375 -66.554688 15.851562 -65.019531 15.082031 -61.632812 C 14.574219 -59.171875 14.601562 -58.5625 14.652344 -57.34375 L 13.25 -47.222656 C 11.632812 -34.953125 11.761719 -31.910156 11.625 -27.941406 C 11.085938 -19.074219 11.304688 -13.898438 12.542969 -6.324219 C 13.292969 -3.003906 14.042969 0.320312 15.070312 3.023438 C 16.40625 5.710938 17.117188 8.121094 18.730469 10.1875 C 20.644531 12.238281 21.941406 14.015625 23.539062 15.777344 C 24.492188 16.652344 26.699219 18.386719 28.25 18.933594 C 33.832031 21.136719 36.558594 20.714844 40.476562 19.636719 C 46.792969 17.539062 49.625 5.21875 44.847656 7.554688 C 40.117188 11.109375 37.46875 13.359375 32.507812 11.433594 C 30.335938 10.609375 27.417969 6.464844 26.070312 3.472656 C 23.390625 -2.210938 21.875 -9.160156 21.222656 -17.367188 C 20.699219 -22.527344 21.570312 -30.800781 21.972656 -35.695312 C 22.414062 -39.679688 23.691406 -45.527344 25.109375 -48.027344 C 28.925781 -51.542969 33.578125 -56.925781 36.773438 -60.722656 L 42.617188 -66.761719 C 43.492188 -67.714844 43.425781 -69.238281 44.898438 -70.519531 C 44.898438 -70.519531 45.1875 -70.835938 45.808594 -70.558594 L 61.375 -91.953125 C 63.375 -95.089844 80.554688 -128.753906 80.871094 -128.460938 C 81.402344 -130.3125 81.933594 -132.167969 81.554688 -133.980469 C 81.222656 -134.574219 80.574219 -135.464844 81.144531 -136.402344 C 81.730469 -137.039062 82.285156 -138.28125 82.855469 -139.21875 L 83.855469 -144.445312 L 87.023438 -148.851562 L 86.375 -149.738281 C 86.972656 -150.066406 89 -152.59375 87.398438 -154.355469 L 89.800781 -169.707031 C 88.785156 -172.101562 90.929688 -171.886719 90.824219 -174.324219 Z M 77.128906 -166.425781 C 76.460938 -160.601562 75.464844 -155.375 73.550781 -150.109375 C 72.261719 -144.566406 70.042969 -139.289062 68.398438 -134.949219 C 65.625 -128.425781 63.105469 -123.136719 60.621094 -116.929688 C 58.351562 -112.871094 56.679688 -109.140625 54.402344 -105.382812 C 52.691406 -102.566406 50.6875 -99.433594 48.355469 -96.894531 C 45.210938 -91.878906 41.183594 -86.21875 37.722656 -81.5 C 35.113281 -78.339844 31.675781 -73.007812 29.359375 -70.167969 L 30.824219 -78.769531 C 31.355469 -80.621094 32.230469 -81.570312 32.496094 -82.5 C 34.445312 -86.851562 35.472656 -91.46875 36.800781 -96.097656 C 38.496094 -99.222656 39.535156 -103.535156 40.636719 -106.324219 C 41.179688 -107.875 40.824219 -109.078125 41.355469 -110.929688 C 41.292969 -112.453125 42.128906 -114.316406 42.953125 -116.488281 C 43.773438 -118.65625 44.28125 -121.117188 45.6875 -123.921875 C 46.257812 -124.863281 46.800781 -126.410156 47.359375 -127.652344 C 48.433594 -131.054688 49.789062 -135.074219 51.183594 -138.183594 C 52.273438 -141.28125 54.273438 -144.414062 55.667969 -147.523438 C 57.65625 -150.960938 60.558594 -154.441406 61.609375 -158.449219 C 62.964844 -162.472656 65.5625 -165.9375 68.160156 -169.398438 C 69.84375 -172.828125 72.773438 -175.695312 75.398438 -178.550781 C 75.980469 -179.183594 76.257812 -179.808594 76.539062 -180.429688 L 78.589844 -182.34375 C 79.214844 -182.066406 79.519531 -182.078125 79.820312 -182.09375 C 78.824219 -176.867188 78.75 -171.375 77.128906 -166.425781 Z M 77.128906 -166.425781 "/></g></g></g></svg>