<svg xmlns="http://www.w3.org/2000/svg" xmlns:xlink="http://www.w3.org/1999/xlink" width="90" zoomAndPan="magnify" viewBox="0 0 75 74.999997" height="90" preserveAspectRatio="xMidYMid meet" version="1.0"><defs><g/><clipPath id="id1"><path d="M 0 3.777344 L 69.222656 3.777344 L 69.222656 72.679688 L 0 72.679688 Z M 0 3.777344 " clip-rule="nonzero"/></clipPath><clipPath id="id2"><path d="M 3.5625 0.0742188 L 75 0.0742188 L 75 71.347656 L 3.5625 71.347656 Z M 3.5625 0.0742188 " clip-rule="nonzero"/></clipPath><clipPath id="id3"><path d="M 28 13.824219 L 46.601562 13.824219 L 46.601562 39.324219 L 28 39.324219 Z M 28 13.824219 " clip-rule="nonzero"/></clipPath><clipPath id="id4"><path d="M 32 20 L 38 20 L 38 23.773438 L 32 23.773438 Z M 32 20 " clip-rule="nonzero"/></clipPath><clipPath id="id5"><path d="M 38 20 L 45 20 L 45 23.773438 L 38 23.773438 Z M 38 20 " clip-rule="nonzero"/></clipPath><clipPath id="id6"><path d="M 36 9.523438 L 41 9.523438 L 41 17 L 36 17 Z M 36 9.523438 " clip-rule="nonzero"/></clipPath><clipPath id="id7"><path d="M 28.8125 17 L 36 17 L 36 22 L 28.8125 22 Z M 28.8125 17 " clip-rule="nonzero"/></clipPath><clipPath id="id8"><path d="M 40 17 L 47.5625 17 L 47.5625 22 L 40 22 Z M 40 17 " clip-rule="nonzero"/></clipPath></defs><g clip-path="url(#id1)"><path fill="#ebebeb" d="M 34.566406 3.8125 C 53.660156 3.8125 69.136719 19.230469 69.136719 38.246094 C 69.136719 57.265625 53.660156 72.679688 34.566406 72.679688 C 15.476562 72.679688 0 57.265625 0 38.246094 C 0 19.230469 15.476562 3.8125 34.566406 3.8125 " fill-opacity="1" fill-rule="nonzero"/></g><g clip-path="url(#id2)"><path fill="#00c2cb" d="M 72.679688 35.648438 C 72.660156 42.570312 70.5 49.277344 66.503906 54.941406 C 62.65625 60.386719 57.058594 64.605469 50.789062 66.898438 C 44.183594 69.316406 36.894531 69.550781 30.125 67.660156 C 23.601562 65.835938 17.800781 61.960938 13.46875 56.789062 C 4.472656 46.042969 3.492188 30.304688 10.707031 18.386719 C 14.191406 12.632812 19.441406 8.082031 25.558594 5.285156 C 31.886719 2.394531 39.179688 1.660156 45.984375 3.039062 C 52.652344 4.386719 58.757812 7.8125 63.460938 12.691406 C 68.191406 17.601562 71.242188 23.914062 72.308594 30.617188 C 72.574219 32.277344 72.675781 33.964844 72.679688 35.648438 C 72.6875 37.136719 75.007812 37.140625 75.003906 35.648438 C 74.980469 28.617188 72.898438 21.699219 68.96875 15.851562 C 65.160156 10.179688 59.703125 5.652344 53.410156 2.960938 C 46.785156 0.121094 39.4375 -0.617188 32.359375 0.722656 C 25.570312 2.011719 19.246094 5.40625 14.296875 10.195312 C 4.058594 20.101562 0.789062 35.703125 6.105469 48.882812 C 8.6875 55.28125 13.105469 60.773438 18.734375 64.765625 C 24.457031 68.828125 31.394531 71.03125 38.402344 71.226562 C 52.527344 71.617188 65.878906 63.246094 71.757812 50.476562 C 73.898438 45.828125 74.988281 40.757812 75.003906 35.648438 C 75.007812 34.152344 72.6875 34.15625 72.679688 35.648438 " fill-opacity="1" fill-rule="nonzero"/></g><g clip-path="url(#id3)"><path fill="#737373" d="M 46.574219 39.050781 C 45.96875 37.867188 45.382812 36.679688 44.800781 35.484375 C 44.109375 34.0625 43.28125 32.507812 43.222656 30.878906 C 43.21875 30.730469 43.207031 30.425781 43.195312 30.417969 C 43.199219 29.816406 43.1875 29.203125 42.980469 28.625 C 42.757812 28.007812 42.238281 27.570312 41.769531 27.207031 C 41.214844 26.78125 40.597656 26.417969 39.984375 26.15625 C 39.675781 26.023438 39.347656 25.921875 39.03125 25.820312 L 38.890625 25.777344 C 38.699219 25.71875 38.539062 25.667969 38.390625 25.617188 C 38.226562 25.558594 38.042969 25.492188 38.023438 25.480469 L 38.007812 25.46875 C 38.003906 25.464844 38 25.460938 37.992188 25.460938 L 37.984375 25.457031 C 36.4375 24.882812 35.167969 24.070312 34.207031 23.039062 C 33.300781 22.066406 32.441406 20.503906 32.746094 19.027344 C 32.980469 17.90625 33.894531 16.902344 35.027344 16.53125 C 35.269531 16.453125 35.515625 16.414062 35.765625 16.414062 C 36.074219 16.414062 36.367188 16.472656 36.636719 16.597656 C 37.191406 16.847656 37.625 17.382812 37.925781 18.183594 C 37.941406 18.226562 37.976562 18.25 38.019531 18.25 L 38.027344 18.25 C 38.070312 18.25 38.105469 18.226562 38.121094 18.183594 C 38.421875 17.382812 38.855469 16.847656 39.410156 16.597656 C 39.679688 16.472656 39.972656 16.414062 40.28125 16.414062 C 40.53125 16.414062 40.777344 16.453125 41.019531 16.53125 C 42.152344 16.902344 43.066406 17.90625 43.300781 19.027344 C 43.605469 20.503906 42.746094 22.066406 41.839844 23.039062 C 41.582031 23.316406 40.667969 24.003906 40.226562 24.335938 C 40.144531 24.394531 40.082031 24.441406 40.042969 24.472656 C 39.851562 24.617188 39.652344 24.753906 39.457031 24.886719 C 39.289062 25 37.292969 26.128906 37.125 26.253906 C 37.089844 26.28125 37.074219 26.324219 37.089844 26.367188 C 37.101562 26.410156 37.136719 26.4375 37.175781 26.4375 C 37.195312 26.4375 37.214844 26.433594 37.230469 26.417969 C 37.414062 26.28125 39.433594 25.140625 39.621094 25.011719 C 39.738281 24.929688 39.851562 24.851562 39.96875 24.769531 C 39.996094 24.75 40.039062 24.722656 40.097656 24.683594 C 41.800781 23.578125 42.855469 22.402344 43.230469 21.191406 C 43.695312 19.699219 43.613281 18.707031 42.953125 17.769531 C 42.300781 16.839844 41.3125 16.246094 40.375 16.214844 C 40.347656 16.214844 40.320312 16.214844 40.292969 16.214844 C 39.304688 16.214844 38.503906 16.816406 38.023438 17.914062 C 37.546875 16.816406 36.742188 16.214844 35.753906 16.214844 C 35.726562 16.214844 35.699219 16.214844 35.671875 16.214844 C 34.734375 16.246094 33.746094 16.839844 33.09375 17.769531 C 32.429688 18.714844 32.332031 19.898438 32.816406 21.195312 C 33.265625 22.40625 34.175781 23.492188 35.519531 24.417969 C 36.191406 24.882812 36.972656 25.285156 37.847656 25.613281 C 37.886719 25.652344 38.058594 25.722656 38.796875 25.957031 L 38.835938 25.96875 C 39.699219 26.242188 40.339844 26.519531 40.917969 26.867188 C 41.539062 27.242188 42.230469 27.710938 42.636719 28.359375 C 43.011719 28.949219 43.007812 29.722656 43.003906 30.402344 L 43.003906 30.480469 C 42.996094 30.613281 42.992188 30.746094 42.996094 30.878906 C 43.03125 32.347656 43.726562 33.789062 44.347656 35.078125 C 44.992188 36.40625 45.644531 37.734375 46.316406 39.050781 L 33.6875 39.050781 C 34.183594 38.414062 34.464844 37.5625 34.636719 36.796875 C 34.804688 36.039062 34.933594 35.085938 34.777344 34.320312 C 34.703125 33.949219 34.402344 33.667969 34.082031 33.515625 C 33.441406 33.210938 32.632812 33.390625 31.949219 33.316406 C 31.277344 33.238281 30.160156 33.015625 30.0625 32.175781 C 30.011719 31.734375 30.035156 31.273438 30.082031 30.832031 C 30.105469 30.632812 30.167969 30.40625 30.117188 30.207031 C 30.03125 29.855469 29.550781 29.898438 29.621094 29.421875 C 29.648438 29.238281 29.972656 29.132812 29.738281 28.945312 C 29.515625 28.769531 29.136719 28.648438 29.425781 28.261719 C 29.527344 28.128906 29.582031 27.949219 29.628906 27.789062 C 29.683594 27.597656 29.738281 27.226562 29.511719 27.117188 C 29.140625 26.933594 28.707031 27.046875 28.375 26.742188 C 28.019531 26.417969 28.390625 25.902344 28.582031 25.597656 C 28.960938 24.992188 29.320312 24.371094 29.652344 23.738281 C 29.773438 23.5 29.890625 23.257812 29.980469 23.007812 C 30.097656 22.683594 29.996094 22.320312 29.925781 21.996094 C 29.773438 21.308594 30.019531 20.53125 30.175781 19.855469 C 30.222656 19.660156 30.265625 19.460938 30.320312 19.265625 C 30.578125 18.304688 31.035156 17.40625 31.664062 16.644531 C 32.699219 15.394531 34.171875 14.675781 35.730469 14.363281 C 36.359375 14.242188 37.15625 14.148438 37.828125 14.105469 L 38.960938 14.082031 C 39.71875 14.109375 40.472656 14.203125 41.203125 14.394531 C 42.65625 14.769531 43.96875 15.59375 44.839844 16.847656 C 45.871094 18.332031 46.289062 20.375 46.167969 22.160156 C 46.054688 23.835938 45.222656 25.285156 44.429688 26.710938 C 44.277344 26.992188 44.117188 27.28125 43.960938 27.574219 C 43.972656 27.582031 43.984375 27.585938 43.992188 27.59375 C 44.054688 27.554688 44.128906 27.566406 44.203125 27.601562 C 44.40625 27.21875 44.621094 26.847656 44.820312 26.488281 C 45.582031 25.121094 46.265625 23.75 46.398438 22.160156 C 46.539062 20.4375 46.109375 18.503906 45.226562 17.023438 C 44.511719 15.820312 43.398438 14.960938 42.125 14.449219 C 41.121094 14.042969 40.035156 13.878906 38.949219 13.851562 C 38.949219 13.851562 38.8125 13.84375 38.730469 13.84375 C 38.714844 13.84375 38.699219 13.84375 38.691406 13.847656 L 38.105469 13.871094 C 38.105469 13.867188 38.0625 13.871094 38.015625 13.871094 L 38.003906 13.871094 C 37.796875 13.882812 37.433594 13.898438 37.230469 13.917969 C 35.542969 14.074219 33.871094 14.464844 32.496094 15.523438 C 31.066406 16.625 30.308594 18.214844 29.921875 19.949219 C 29.777344 20.585938 29.570312 21.285156 29.679688 21.941406 C 29.742188 22.324219 29.867188 22.671875 29.722656 23.046875 C 29.59375 23.382812 29.414062 23.699219 29.242188 24.011719 C 28.929688 24.585938 28.59375 25.15625 28.242188 25.707031 C 27.847656 26.316406 27.992188 26.945312 28.695312 27.179688 C 28.890625 27.242188 29.097656 27.246094 29.300781 27.28125 C 29.59375 27.335938 29.386719 27.824219 29.320312 27.980469 C 29.203125 28.253906 28.910156 28.492188 29.164062 28.800781 C 29.226562 28.875 29.5 29.179688 29.601562 29.054688 C 29.539062 29.132812 29.460938 29.183594 29.425781 29.28125 C 29.308594 29.609375 29.445312 29.875 29.691406 30.085938 C 29.914062 30.277344 29.914062 30.339844 29.878906 30.625 C 29.824219 31.046875 29.800781 31.464844 29.816406 31.886719 C 29.839844 32.574219 30.140625 33.007812 30.773438 33.265625 C 31.445312 33.539062 32.1875 33.605469 32.90625 33.59375 C 33.507812 33.582031 34.292969 33.617188 34.535156 34.300781 C 34.628906 34.5625 34.582031 34.902344 34.582031 35.175781 C 34.582031 35.699219 34.519531 36.222656 34.414062 36.734375 C 34.28125 37.378906 34.050781 38.007812 33.71875 38.578125 C 33.621094 38.742188 33.515625 38.910156 33.386719 39.050781 C 33.339844 39.101562 33.386719 39.3125 33.386719 39.3125 L 46.597656 39.3125 L 46.597656 39.050781 L 46.574219 39.050781 " fill-opacity="1" fill-rule="nonzero"/></g><path fill="#00c2cb" d="M 36.320312 22.210938 C 34.503906 22.515625 32.820312 22.441406 31.980469 21.921875 C 32.46875 21.128906 33.898438 20.550781 35.714844 20.5625 C 36.199219 20.585938 36.671875 20.644531 37.125 20.722656 C 36.570312 20.609375 35.976562 20.53125 35.363281 20.503906 C 33.523438 20.511719 32.074219 21.148438 31.589844 22.007812 C 32.449219 22.566406 34.15625 22.640625 36 22.296875 C 36.609375 22.214844 37.175781 22.117188 37.675781 22.015625 C 37.257812 22.085938 36.800781 22.152344 36.320312 22.210938 " fill-opacity="1" fill-rule="nonzero"/><path fill="#00c2cb" d="M 39.863281 22.222656 C 41.675781 22.527344 43.359375 22.453125 44.199219 21.9375 C 43.714844 21.140625 42.28125 20.566406 40.464844 20.574219 C 39.980469 20.601562 39.507812 20.65625 39.054688 20.734375 C 39.609375 20.625 40.207031 20.546875 40.816406 20.519531 C 42.65625 20.527344 44.105469 21.160156 44.589844 22.019531 C 43.730469 22.578125 42.023438 22.652344 40.183594 22.308594 C 39.570312 22.226562 39.003906 22.128906 38.503906 22.027344 C 38.921875 22.097656 39.378906 22.164062 39.863281 22.222656 " fill-opacity="1" fill-rule="nonzero"/><g clip-path="url(#id4)"><path fill="#00c2cb" d="M 36.703125 22.421875 C 35.023438 23.191406 33.378906 23.554688 32.4375 23.273438 C 32.707031 22.378906 33.949219 21.449219 35.707031 20.984375 C 36.179688 20.882812 36.652344 20.816406 37.109375 20.773438 C 36.542969 20.8125 35.949219 20.890625 35.351562 21.019531 C 33.574219 21.507812 32.332031 22.5 32.082031 23.457031 C 33.046875 23.773438 34.71875 23.398438 36.414062 22.589844 C 36.984375 22.351562 37.507812 22.109375 37.96875 21.878906 C 37.578125 22.058594 37.15625 22.242188 36.703125 22.421875 " fill-opacity="1" fill-rule="nonzero"/></g><g clip-path="url(#id5)"><path fill="#00c2cb" d="M 39.488281 22.421875 C 41.167969 23.191406 42.8125 23.554688 43.753906 23.273438 C 43.484375 22.378906 42.242188 21.449219 40.484375 20.984375 C 40.011719 20.882812 39.539062 20.816406 39.082031 20.773438 C 39.648438 20.8125 40.242188 20.890625 40.839844 21.019531 C 42.617188 21.507812 43.859375 22.5 44.109375 23.457031 C 43.144531 23.773438 41.472656 23.398438 39.777344 22.589844 C 39.207031 22.351562 38.683594 22.109375 38.222656 21.878906 C 38.613281 22.058594 39.035156 22.242188 39.488281 22.421875 " fill-opacity="1" fill-rule="nonzero"/></g><g clip-path="url(#id6)"><path fill="#cb6ce6" d="M 36.109375 15.097656 C 36.109375 12.8125 36.9375 10.847656 38.117188 10.015625 C 39.296875 10.847656 40.125 12.8125 40.125 15.097656 C 40.125 15.707031 40.066406 16.292969 39.957031 16.839844 C 40.128906 16.175781 40.226562 15.445312 40.226562 14.675781 C 40.226562 12.355469 39.355469 10.367188 38.117188 9.523438 C 36.878906 10.367188 36.011719 12.355469 36.011719 14.675781 C 36.011719 15.445312 36.105469 16.175781 36.277344 16.839844 C 36.167969 16.292969 36.109375 15.707031 36.109375 15.097656 " fill-opacity="1" fill-rule="nonzero"/></g><path fill="#cb6ce6" d="M 34.472656 16.5 C 33.417969 14.636719 33.1875 12.644531 33.761719 11.398438 C 35.105469 11.515625 36.683594 12.714844 37.738281 14.578125 C 38.019531 15.070312 38.242188 15.578125 38.40625 16.074219 C 38.242188 15.449219 37.980469 14.808594 37.625 14.183594 C 36.558594 12.296875 34.933594 11.09375 33.535156 11 C 32.917969 12.28125 33.125 14.316406 34.195312 16.203125 C 34.550781 16.828125 34.964844 17.378906 35.414062 17.835938 C 35.070312 17.441406 34.753906 16.992188 34.472656 16.5 " fill-opacity="1" fill-rule="nonzero"/><path fill="#cb6ce6" d="M 33.636719 18.710938 C 31.8125 17.636719 30.632812 16.027344 30.519531 14.65625 C 31.742188 14.070312 33.695312 14.304688 35.523438 15.382812 C 36.011719 15.667969 36.453125 15.992188 36.839844 16.339844 C 36.386719 15.882812 35.847656 15.460938 35.234375 15.097656 C 33.382812 14.007812 31.382812 13.796875 30.125 14.425781 C 30.21875 15.847656 31.398438 17.503906 33.253906 18.59375 C 33.867188 18.957031 34.496094 19.21875 35.109375 19.390625 C 34.621094 19.222656 34.125 18.996094 33.636719 18.710938 " fill-opacity="1" fill-rule="nonzero"/><g clip-path="url(#id7)"><path fill="#cb6ce6" d="M 33.976562 21 C 31.867188 21 30.058594 20.207031 29.289062 19.078125 C 30.058594 17.949219 31.867188 17.15625 33.976562 17.15625 C 34.539062 17.15625 35.078125 17.210938 35.585938 17.316406 C 34.96875 17.152344 34.296875 17.058594 33.585938 17.058594 C 31.449219 17.058594 29.613281 17.890625 28.832031 19.078125 C 29.613281 20.265625 31.449219 21.097656 33.585938 21.097656 C 34.296875 21.097656 34.96875 21.003906 35.585938 20.839844 C 35.078125 20.945312 34.539062 21 33.976562 21 " fill-opacity="1" fill-rule="nonzero"/></g><path fill="#cb6ce6" d="M 41.902344 16.5 C 42.957031 14.636719 43.1875 12.644531 42.613281 11.398438 C 41.269531 11.515625 39.691406 12.714844 38.636719 14.578125 C 38.355469 15.070312 38.132812 15.578125 37.96875 16.074219 C 38.132812 15.449219 38.394531 14.808594 38.746094 14.183594 C 39.816406 12.296875 41.441406 11.09375 42.839844 11 C 43.457031 12.28125 43.25 14.316406 42.179688 16.203125 C 41.824219 16.828125 41.410156 17.378906 40.960938 17.835938 C 41.304688 17.441406 41.621094 16.992188 41.902344 16.5 " fill-opacity="1" fill-rule="nonzero"/><path fill="#cb6ce6" d="M 42.738281 18.710938 C 44.5625 17.636719 45.742188 16.027344 45.855469 14.65625 C 44.632812 14.070312 42.675781 14.304688 40.851562 15.382812 C 40.363281 15.667969 39.921875 15.992188 39.535156 16.339844 C 39.988281 15.882812 40.527344 15.460938 41.140625 15.097656 C 42.992188 14.007812 44.992188 13.796875 46.246094 14.425781 C 46.15625 15.847656 44.972656 17.503906 43.121094 18.59375 C 42.507812 18.957031 41.878906 19.21875 41.265625 19.390625 C 41.753906 19.222656 42.25 18.996094 42.738281 18.710938 " fill-opacity="1" fill-rule="nonzero"/><g clip-path="url(#id8)"><path fill="#cb6ce6" d="M 42.398438 21 C 44.507812 21 46.316406 20.207031 47.085938 19.078125 C 46.316406 17.949219 44.507812 17.15625 42.398438 17.15625 C 41.835938 17.15625 41.296875 17.210938 40.789062 17.316406 C 41.402344 17.152344 42.078125 17.058594 42.789062 17.058594 C 44.925781 17.058594 46.761719 17.890625 47.542969 19.078125 C 46.761719 20.265625 44.925781 21.097656 42.789062 21.097656 C 42.078125 21.097656 41.402344 21.003906 40.789062 20.839844 C 41.296875 20.945312 41.835938 21 42.398438 21 " fill-opacity="1" fill-rule="nonzero"/></g><g fill="#000000" fill-opacity="1"><g transform="translate(11.83444, 48.49947)"><g><path d="M 2.671875 -6.796875 C 3.285156 -6.796875 3.757812 -6.628906 4.09375 -6.296875 C 4.425781 -5.972656 4.59375 -5.503906 4.59375 -4.890625 C 4.59375 -4.171875 4.394531 -3.617188 4 -3.234375 C 3.613281 -2.847656 3.054688 -2.65625 2.328125 -2.65625 L 1.390625 -2.65625 L 1.390625 0 L 1.171875 0 L 1.171875 -6.78125 Z M 2.65625 -2.859375 C 3.207031 -2.910156 3.632812 -3.113281 3.9375 -3.46875 C 4.238281 -3.832031 4.390625 -4.304688 4.390625 -4.890625 C 4.390625 -5.421875 4.242188 -5.828125 3.953125 -6.109375 C 3.671875 -6.398438 3.269531 -6.5625 2.75 -6.59375 L 1.390625 -6.578125 L 1.390625 -2.859375 Z M 2.65625 -2.859375 "/></g></g></g><g fill="#000000" fill-opacity="1"><g transform="translate(16.987452, 48.49947)"><g><path d="M 2.359375 -5.25 C 2.734375 -5.25 3.097656 -5.171875 3.453125 -5.015625 L 3.40625 -4.8125 L 3.34375 -4.8125 C 3.019531 -4.96875 2.6875 -5.046875 2.34375 -5.046875 C 2.0625 -5.046875 1.816406 -4.988281 1.609375 -4.875 C 1.410156 -4.769531 1.253906 -4.628906 1.140625 -4.453125 C 1.035156 -4.273438 0.984375 -4.097656 0.984375 -3.921875 C 0.984375 -3.742188 1.035156 -3.585938 1.140625 -3.453125 C 1.253906 -3.316406 1.390625 -3.203125 1.546875 -3.109375 C 1.703125 -3.015625 1.925781 -2.90625 2.21875 -2.78125 C 2.519531 -2.644531 2.765625 -2.519531 2.953125 -2.40625 C 3.140625 -2.289062 3.296875 -2.144531 3.421875 -1.96875 C 3.554688 -1.800781 3.625 -1.59375 3.625 -1.34375 C 3.625 -1.101562 3.554688 -0.875 3.421875 -0.65625 C 3.285156 -0.445312 3.085938 -0.28125 2.828125 -0.15625 C 2.578125 -0.03125 2.296875 0.03125 1.984375 0.03125 C 1.765625 0.03125 1.53125 0 1.28125 -0.0625 C 1.039062 -0.132812 0.832031 -0.226562 0.65625 -0.34375 L 0.65625 -0.546875 L 0.71875 -0.5625 C 0.894531 -0.4375 1.097656 -0.335938 1.328125 -0.265625 C 1.554688 -0.203125 1.773438 -0.171875 1.984375 -0.171875 C 2.273438 -0.171875 2.523438 -0.222656 2.734375 -0.328125 C 2.953125 -0.441406 3.117188 -0.585938 3.234375 -0.765625 C 3.359375 -0.941406 3.421875 -1.128906 3.421875 -1.328125 C 3.421875 -1.523438 3.363281 -1.695312 3.25 -1.84375 C 3.132812 -1.988281 2.992188 -2.109375 2.828125 -2.203125 C 2.660156 -2.304688 2.4375 -2.421875 2.15625 -2.546875 C 1.84375 -2.691406 1.597656 -2.816406 1.421875 -2.921875 C 1.242188 -3.023438 1.09375 -3.160156 0.96875 -3.328125 C 0.84375 -3.492188 0.78125 -3.703125 0.78125 -3.953125 C 0.78125 -4.179688 0.847656 -4.394531 0.984375 -4.59375 C 1.117188 -4.789062 1.304688 -4.945312 1.546875 -5.0625 C 1.785156 -5.1875 2.054688 -5.25 2.359375 -5.25 Z M 2.359375 -5.25 "/></g></g></g><g fill="#000000" fill-opacity="1"><g transform="translate(21.288725, 48.49947)"><g><path d="M 1.359375 0 L 1.15625 0 L 1.15625 -5.21875 L 1.359375 -5.21875 Z M 1.359375 0 "/></g></g></g><g fill="#000000" fill-opacity="1"><g transform="translate(23.811999, 48.49947)"><g><path d="M 2.953125 -5.25 C 3.222656 -5.25 3.488281 -5.207031 3.75 -5.125 C 4.019531 -5.050781 4.265625 -4.9375 4.484375 -4.78125 L 4.421875 -4.59375 L 4.359375 -4.59375 C 4.148438 -4.738281 3.925781 -4.847656 3.6875 -4.921875 C 3.445312 -5.003906 3.203125 -5.046875 2.953125 -5.046875 C 2.265625 -5.046875 1.738281 -4.832031 1.375 -4.40625 C 1.019531 -3.988281 0.84375 -3.382812 0.84375 -2.59375 C 0.84375 -1.8125 1.015625 -1.207031 1.359375 -0.78125 C 1.703125 -0.363281 2.195312 -0.15625 2.84375 -0.15625 C 3.113281 -0.15625 3.390625 -0.203125 3.671875 -0.296875 C 3.953125 -0.398438 4.203125 -0.535156 4.421875 -0.703125 L 4.484375 -0.6875 L 4.46875 -0.484375 C 4.226562 -0.316406 3.960938 -0.1875 3.671875 -0.09375 C 3.390625 0 3.117188 0.046875 2.859375 0.046875 C 2.128906 0.046875 1.570312 -0.175781 1.1875 -0.625 C 0.800781 -1.082031 0.609375 -1.738281 0.609375 -2.59375 C 0.609375 -3.445312 0.804688 -4.101562 1.203125 -4.5625 C 1.609375 -5.019531 2.191406 -5.25 2.953125 -5.25 Z M 2.953125 -5.25 "/></g></g></g><g fill="#000000" fill-opacity="1"><g transform="translate(28.784016, 48.49947)"><g><path d="M 2.984375 -5.265625 C 3.722656 -5.265625 4.285156 -5.039062 4.671875 -4.59375 C 5.066406 -4.15625 5.265625 -3.523438 5.265625 -2.703125 C 5.265625 -1.828125 5.054688 -1.148438 4.640625 -0.671875 C 4.234375 -0.191406 3.648438 0.046875 2.890625 0.046875 C 2.160156 0.046875 1.597656 -0.179688 1.203125 -0.640625 C 0.804688 -1.097656 0.609375 -1.75 0.609375 -2.59375 C 0.609375 -3.457031 0.8125 -4.117188 1.21875 -4.578125 C 1.632812 -5.035156 2.222656 -5.265625 2.984375 -5.265625 Z M 2.984375 -5.046875 C 2.285156 -5.046875 1.753906 -4.835938 1.390625 -4.421875 C 1.023438 -4.003906 0.84375 -3.398438 0.84375 -2.609375 C 0.84375 -1.816406 1.019531 -1.207031 1.375 -0.78125 C 1.726562 -0.363281 2.234375 -0.15625 2.890625 -0.15625 C 3.585938 -0.15625 4.117188 -0.367188 4.484375 -0.796875 C 4.859375 -1.234375 5.046875 -1.863281 5.046875 -2.6875 C 5.046875 -3.445312 4.867188 -4.03125 4.515625 -4.4375 C 4.160156 -4.84375 3.648438 -5.046875 2.984375 -5.046875 Z M 2.984375 -5.046875 "/></g></g></g><g fill="#000000" fill-opacity="1"><g transform="translate(34.671653, 48.49947)"><g><path d="M 5.953125 -1.875 L 5.9375 0 L 5.734375 0 L 1.4375 -6.328125 L 1.390625 -6.328125 L 1.390625 0 L 1.171875 0 L 1.171875 -2.015625 L 1.1875 -6.78125 L 1.390625 -6.78125 L 5.6875 -0.453125 L 5.71875 -0.453125 L 5.75 -6.765625 L 5.953125 -6.78125 Z M 5.953125 -1.875 "/></g></g></g><g fill="#000000" fill-opacity="1"><g transform="translate(41.804954, 48.49947)"><g><path d="M 3.9375 -0.171875 L 3.890625 0 L 1.15625 0 L 1.15625 -5.21875 L 3.875 -5.21875 L 3.90625 -5.1875 L 3.859375 -5.015625 L 1.359375 -5.015625 L 1.359375 -2.8125 L 3.4375 -2.8125 L 3.453125 -2.765625 L 3.421875 -2.59375 L 1.359375 -2.59375 L 1.359375 -0.203125 L 3.90625 -0.203125 Z M 3.9375 -0.171875 "/></g></g></g><g fill="#000000" fill-opacity="1"><g transform="translate(46.191404, 48.49947)"><g><path d="M 4.8125 -1.875 C 4.820312 -1.269531 4.65625 -0.800781 4.3125 -0.46875 C 3.976562 -0.132812 3.5 0.03125 2.875 0.03125 C 2.238281 0.03125 1.753906 -0.128906 1.421875 -0.453125 C 1.097656 -0.785156 0.941406 -1.257812 0.953125 -1.875 L 0.953125 -5.21875 L 1.1875 -5.21875 L 1.15625 -1.890625 C 1.15625 -1.328125 1.300781 -0.898438 1.59375 -0.609375 C 1.882812 -0.316406 2.3125 -0.171875 2.875 -0.171875 C 3.4375 -0.171875 3.863281 -0.316406 4.15625 -0.609375 C 4.445312 -0.898438 4.59375 -1.328125 4.59375 -1.890625 L 4.59375 -5.21875 L 4.8125 -5.21875 Z M 4.8125 -1.875 "/></g></g></g><g fill="#000000" fill-opacity="1"><g transform="translate(51.951279, 48.49947)"><g><path d="M 2.75 -2.1875 C 3.195312 -1.476562 3.71875 -0.765625 4.3125 -0.046875 L 4.3125 -0.015625 L 4.15625 0.0625 L 4.09375 0.03125 C 3.488281 -0.707031 2.960938 -1.429688 2.515625 -2.140625 L 1.359375 -2.140625 L 1.359375 0 L 1.15625 0 L 1.15625 -5.21875 L 2.421875 -5.234375 C 2.929688 -5.234375 3.320312 -5.109375 3.59375 -4.859375 C 3.875 -4.609375 4.015625 -4.253906 4.015625 -3.796875 C 4.015625 -3.398438 3.90625 -3.0625 3.6875 -2.78125 C 3.46875 -2.5 3.15625 -2.300781 2.75 -2.1875 Z M 1.359375 -2.34375 L 2.578125 -2.328125 C 2.972656 -2.421875 3.269531 -2.59375 3.46875 -2.84375 C 3.675781 -3.09375 3.78125 -3.40625 3.78125 -3.78125 C 3.78125 -4.175781 3.664062 -4.476562 3.4375 -4.6875 C 3.21875 -4.90625 2.890625 -5.023438 2.453125 -5.046875 L 1.359375 -5.03125 Z M 1.359375 -2.34375 "/></g></g></g><g fill="#000000" fill-opacity="1"><g transform="translate(56.912651, 48.49947)"><g><path d="M 2.984375 -5.265625 C 3.722656 -5.265625 4.285156 -5.039062 4.671875 -4.59375 C 5.066406 -4.15625 5.265625 -3.523438 5.265625 -2.703125 C 5.265625 -1.828125 5.054688 -1.148438 4.640625 -0.671875 C 4.234375 -0.191406 3.648438 0.046875 2.890625 0.046875 C 2.160156 0.046875 1.597656 -0.179688 1.203125 -0.640625 C 0.804688 -1.097656 0.609375 -1.75 0.609375 -2.59375 C 0.609375 -3.457031 0.8125 -4.117188 1.21875 -4.578125 C 1.632812 -5.035156 2.222656 -5.265625 2.984375 -5.265625 Z M 2.984375 -5.046875 C 2.285156 -5.046875 1.753906 -4.835938 1.390625 -4.421875 C 1.023438 -4.003906 0.84375 -3.398438 0.84375 -2.609375 C 0.84375 -1.816406 1.019531 -1.207031 1.375 -0.78125 C 1.726562 -0.363281 2.234375 -0.15625 2.890625 -0.15625 C 3.585938 -0.15625 4.117188 -0.367188 4.484375 -0.796875 C 4.859375 -1.234375 5.046875 -1.863281 5.046875 -2.6875 C 5.046875 -3.445312 4.867188 -4.03125 4.515625 -4.4375 C 4.160156 -4.84375 3.648438 -5.046875 2.984375 -5.046875 Z M 2.984375 -5.046875 "/></g></g></g><g fill="#000000" fill-opacity="1"><g transform="translate(21.986306, 63.265821)"><g/></g></g><g fill="#000000" fill-opacity="1"><g transform="translate(23.902716, 63.265821)"><g/></g></g><g fill="#000000" fill-opacity="1"><g transform="translate(25.819125, 63.265821)"><g/></g></g><g fill="#000000" fill-opacity="1"><g transform="translate(27.735535, 63.265821)"><g/></g></g><g fill="#000000" fill-opacity="1"><g transform="translate(29.651945, 63.265821)"><g/></g></g><g fill="#000000" fill-opacity="1"><g transform="translate(31.568355, 63.265821)"><g/></g></g><g fill="#000000" fill-opacity="1"><g transform="translate(33.484765, 63.265821)"><g/></g></g><g fill="#000000" fill-opacity="1"><g transform="translate(35.401174, 63.265821)"><g/></g></g><g fill="#000000" fill-opacity="1"><g transform="translate(37.317584, 63.265821)"><g/></g></g><g fill="#000000" fill-opacity="1"><g transform="translate(39.233994, 63.265821)"><g/></g></g><g fill="#000000" fill-opacity="1"><g transform="translate(41.150404, 63.265821)"><g/></g></g><g fill="#000000" fill-opacity="1"><g transform="translate(43.066814, 63.265821)"><g/></g></g><g fill="#000000" fill-opacity="1"><g transform="translate(44.983223, 63.265821)"><g/></g></g><g fill="#000000" fill-opacity="1"><g transform="translate(46.899633, 63.265821)"><g/></g></g><g fill="#000000" fill-opacity="1"><g transform="translate(48.816043, 63.265821)"><g/></g></g><g fill="#000000" fill-opacity="1"><g transform="translate(50.732453, 63.265821)"><g/></g></g><g fill="#737373" fill-opacity="1"><g transform="translate(31.834628, 56.963597)"><g><path d="M 5.597656 -4.707031 C 5.585938 -4.730469 5.582031 -4.789062 5.570312 -4.796875 C 5.519531 -4.933594 5.398438 -5.078125 5.269531 -5.1875 C 5.078125 -5.335938 4.894531 -5.375 4.699219 -5.414062 C 4.585938 -5.417969 4.507812 -5.382812 4.414062 -5.378906 C 4.324219 -5.375 4.21875 -5.394531 4.117188 -5.367188 C 3.972656 -5.335938 3.824219 -5.296875 3.675781 -5.242188 L 3.207031 -4.996094 C 3.105469 -4.957031 3.007812 -4.882812 2.894531 -4.800781 L 2.683594 -4.652344 C 2.640625 -4.617188 2.542969 -4.511719 2.484375 -4.484375 C 2.453125 -4.460938 2.386719 -4.433594 2.328125 -4.398438 C 2.25 -4.347656 2.164062 -4.300781 2.128906 -4.242188 C 2.078125 -4.136719 2.035156 -4.101562 1.953125 -4.109375 C 1.960938 -3.925781 1.785156 -3.996094 1.871094 -3.898438 C 1.835938 -3.898438 1.777344 -3.894531 1.746094 -3.882812 C 1.710938 -3.855469 1.667969 -3.84375 1.644531 -3.808594 C 1.644531 -3.808594 1.65625 -3.808594 1.65625 -3.796875 C 1.582031 -3.679688 1.484375 -3.5625 1.382812 -3.523438 C 1.363281 -3.488281 1.355469 -3.40625 1.308594 -3.394531 C 1.242188 -3.367188 1.242188 -3.3125 1.246094 -3.265625 C 1.222656 -3.265625 1.203125 -3.230469 1.203125 -3.230469 L 0.976562 -2.867188 L 0.941406 -2.839844 C 0.976562 -2.820312 0.957031 -2.785156 0.921875 -2.785156 C 0.878906 -2.78125 0.867188 -2.757812 0.84375 -2.746094 L 0.738281 -2.535156 C 0.726562 -2.535156 0.714844 -2.523438 0.71875 -2.511719 C 0.671875 -2.464844 0.652344 -2.394531 0.632812 -2.3125 L 0.546875 -2.195312 C 0.585938 -2.082031 0.53125 -2.070312 0.53125 -2.082031 L 0.523438 -1.976562 C 0.5 -1.929688 0.492188 -1.851562 0.496094 -1.78125 C 0.535156 -1.429688 0.761719 -1.140625 1 -0.980469 C 1.199219 -0.828125 1.503906 -0.703125 1.664062 -0.640625 C 1.921875 -0.550781 2.460938 -0.492188 2.253906 -0.484375 L 2.257812 -0.460938 C 2.222656 -0.472656 2.203125 -0.402344 2.191406 -0.367188 C 2.125 -0.351562 1.96875 -0.21875 1.9375 -0.183594 C 1.859375 -0.113281 1.757812 -0.0390625 1.652344 0.101562 C 1.652344 0.125 1.597656 0.160156 1.597656 0.160156 C 1.550781 0.207031 1.507812 0.277344 1.457031 0.363281 L 1.46875 0.359375 C 1.5 0.359375 1.511719 0.335938 1.546875 0.3125 C 1.460938 0.441406 1.382812 0.558594 1.367188 0.695312 L 1.375 0.84375 L 1.414062 0.96875 L 1.449219 1.035156 C 1.488281 1.101562 1.523438 1.160156 1.546875 1.179688 C 1.632812 1.292969 1.726562 1.378906 1.867188 1.464844 C 1.90625 1.519531 1.953125 1.550781 2.011719 1.597656 C 2.128906 1.660156 2.246094 1.699219 2.371094 1.753906 C 2.417969 1.761719 2.5 1.746094 2.554688 1.746094 C 2.589844 1.742188 2.648438 1.75 2.683594 1.785156 C 2.707031 1.785156 2.730469 1.804688 2.730469 1.804688 C 2.796875 1.824219 2.820312 1.789062 2.886719 1.742188 C 2.953125 1.714844 3.058594 1.710938 3.171875 1.695312 C 3.261719 1.691406 3.507812 1.566406 3.609375 1.539062 C 3.734375 1.488281 4.160156 1.300781 4.28125 1.144531 C 4.324219 1.132812 4.394531 1.128906 4.460938 1.101562 L 4.460938 1.082031 C 4.558594 0.996094 5.253906 0.441406 5.339844 0.277344 L 5.5 -0.015625 L 5.335938 -0.113281 L 5.28125 -0.0507812 C 5.105469 0.09375 4.585938 0.527344 4.339844 0.640625 C 4.214844 0.703125 4.070312 0.789062 3.96875 0.839844 C 3.757812 0.9375 3.589844 1.039062 3.398438 1.125 C 3.074219 1.277344 2.765625 1.335938 2.457031 1.3125 C 2.34375 1.320312 2.238281 1.324219 2.160156 1.292969 C 2.101562 1.285156 2.03125 1.242188 2.019531 1.21875 C 1.933594 1.105469 1.910156 0.855469 1.949219 0.707031 C 1.984375 0.671875 1.980469 0.601562 2.003906 0.566406 C 2.09375 0.539062 2.144531 0.457031 2.140625 0.367188 C 2.140625 0.34375 2.152344 0.320312 2.164062 0.332031 C 2.222656 0.328125 2.207031 0.285156 2.25 0.246094 L 2.28125 0.167969 C 2.414062 0.046875 2.511719 -0.105469 2.703125 -0.195312 C 2.871094 -0.269531 3 -0.402344 3.171875 -0.429688 C 3.339844 -0.519531 3.523438 -0.539062 3.703125 -0.578125 L 3.726562 -0.582031 C 3.714844 -0.589844 3.703125 -0.601562 3.667969 -0.601562 C 3.746094 -0.628906 3.8125 -0.652344 3.871094 -0.65625 C 3.941406 -0.667969 4.007812 -0.671875 4.078125 -0.675781 L 4.316406 -0.6875 C 4.429688 -0.691406 4.554688 -0.683594 4.660156 -0.6875 C 4.679688 -0.734375 4.691406 -0.769531 4.6875 -0.792969 C 4.679688 -0.976562 4.578125 -0.949219 4.507812 -1.003906 C 4.472656 -1.011719 4.496094 -0.992188 4.472656 -1.011719 C 4.472656 -1.023438 4.496094 -1.023438 4.496094 -1.035156 C 4.195312 -1.070312 3.890625 -1 3.5625 -0.960938 L 3.480469 -0.949219 C 3.480469 -0.960938 3.480469 -0.960938 3.46875 -0.96875 L 3.140625 -0.910156 C 3.050781 -0.894531 2.933594 -0.890625 2.832031 -0.875 C 2.628906 -0.832031 2.386719 -0.855469 2.148438 -0.867188 C 1.804688 -0.898438 1.539062 -0.957031 1.253906 -1.195312 C 1.0625 -1.382812 0.84375 -1.707031 0.992188 -1.984375 L 0.988281 -2.007812 C 1.0625 -2.171875 1.125 -2.324219 1.1875 -2.496094 C 1.195312 -2.53125 1.195312 -2.554688 1.226562 -2.589844 C 1.261719 -2.625 1.292969 -2.683594 1.324219 -2.71875 L 1.507812 -2.992188 C 1.585938 -3.050781 1.6875 -3.125 1.691406 -3.261719 L 1.703125 -3.273438 C 1.769531 -3.324219 1.859375 -3.359375 1.878906 -3.417969 C 1.941406 -3.546875 2.03125 -3.621094 2.144531 -3.679688 C 2.199219 -3.71875 2.25 -3.800781 2.308594 -3.847656 L 2.441406 -3.957031 L 2.5625 -4.054688 C 2.660156 -4.136719 2.738281 -4.210938 2.824219 -4.316406 C 2.824219 -4.316406 2.800781 -4.328125 2.800781 -4.359375 C 2.949219 -4.320312 2.992188 -4.367188 2.957031 -4.457031 L 2.910156 -4.457031 L 2.910156 -4.480469 L 3.011719 -4.484375 C 3.070312 -4.488281 3.105469 -4.476562 3.160156 -4.492188 C 3.207031 -4.492188 3.273438 -4.519531 3.308594 -4.542969 C 3.363281 -4.566406 3.40625 -4.613281 3.472656 -4.640625 C 3.4375 -4.683594 3.425781 -4.683594 3.425781 -4.683594 C 3.550781 -4.710938 3.640625 -4.785156 3.765625 -4.824219 C 3.761719 -4.835938 3.773438 -4.871094 3.796875 -4.871094 C 3.886719 -4.910156 4 -4.914062 4.089844 -4.953125 C 4.222656 -5.015625 4.378906 -4.917969 4.488281 -5.039062 L 4.507812 -5.085938 C 4.539062 -5.15625 4.699219 -5.136719 4.792969 -5.085938 C 5.257812 -4.886719 5.394531 -4.390625 5.207031 -3.960938 C 5.144531 -3.785156 5.101562 -3.703125 5.042969 -3.550781 L 4.964844 -3.445312 C 4.882812 -3.28125 4.75 -3.152344 4.675781 -3.011719 C 4.609375 -2.917969 4.511719 -2.84375 4.445312 -2.761719 C 4.425781 -2.726562 4.402344 -2.679688 4.425781 -2.667969 C 4.441406 -2.566406 4.453125 -2.554688 4.585938 -2.445312 C 4.621094 -2.390625 4.714844 -2.371094 4.757812 -2.410156 C 4.789062 -2.457031 4.855469 -2.492188 4.898438 -2.5625 C 4.957031 -2.609375 4.988281 -2.65625 5.03125 -2.707031 C 5.082031 -2.8125 5.160156 -2.917969 5.214844 -3 C 5.289062 -3.117188 5.363281 -3.234375 5.414062 -3.339844 C 5.523438 -3.503906 5.613281 -3.792969 5.664062 -3.988281 L 5.6875 -4.195312 C 5.691406 -4.378906 5.652344 -4.539062 5.597656 -4.707031 Z M 5.597656 -4.707031 "/></g></g></g><g fill="#737373" fill-opacity="1"><g transform="translate(37.815392, 56.710513)"><g><path d="M 1.902344 -2.332031 C 1.867188 -2.355469 1.808594 -2.410156 1.578125 -2.398438 C 1.441406 -2.394531 1.386719 -2.355469 1.285156 -2.328125 L 1.183594 -2.269531 C 1.105469 -2.230469 1.105469 -2.230469 1.050781 -2.183594 C 1.019531 -2.113281 0.964844 -2.042969 0.921875 -1.984375 C 0.867188 -1.910156 0.894531 -1.808594 0.886719 -1.730469 C 0.84375 -1.683594 0.859375 -1.546875 0.863281 -1.5 L 0.914062 -1.410156 C 0.902344 -1.351562 0.929688 -1.308594 0.953125 -1.265625 C 1.015625 -1.164062 1.027344 -1.09375 1.078125 -0.960938 L 1.09375 -0.914062 L 1.117188 -0.859375 L 1.167969 -0.792969 L 1.242188 -0.660156 L 1.265625 -0.625 L 1.441406 -0.222656 C 1.519531 -0.0546875 1.542969 0.0273438 1.539062 0.175781 C 1.554688 0.265625 1.558594 0.367188 1.539062 0.472656 C 1.53125 0.542969 1.511719 0.621094 1.460938 0.703125 C 1.375 0.832031 1.304688 0.871094 1.089844 0.914062 C 1.023438 0.929688 0.929688 0.910156 0.871094 0.878906 C 0.777344 0.789062 0.707031 0.746094 0.703125 0.644531 C 0.710938 0.621094 0.675781 0.589844 0.652344 0.566406 C 0.605469 0.488281 0.589844 0.386719 0.601562 0.191406 L 0.664062 0.0273438 L 0.796875 -0.125 L 0.78125 -0.226562 L 0.753906 -0.25 L 0.753906 -0.261719 C 0.65625 -0.210938 0.640625 -0.222656 0.554688 -0.148438 C 0.453125 -0.078125 0.34375 0.03125 0.269531 0.136719 L 0.265625 0.34375 C 0.265625 0.34375 0.242188 0.34375 0.246094 0.367188 L 0.246094 0.378906 C 0.25 0.492188 0.289062 0.617188 0.347656 0.695312 C 0.398438 0.75 0.445312 0.839844 0.53125 0.902344 C 0.578125 0.96875 0.671875 1.058594 0.78125 1.121094 C 0.828125 1.1875 0.917969 1.183594 0.941406 1.207031 C 1 1.226562 1.09375 1.222656 1.183594 1.242188 C 1.289062 1.25 1.367188 1.257812 1.4375 1.230469 L 1.546875 1.191406 C 1.535156 1.171875 1.523438 1.171875 1.523438 1.160156 C 1.558594 1.15625 1.59375 1.15625 1.625 1.144531 C 1.695312 1.117188 1.804688 1.011719 1.878906 0.890625 C 1.957031 0.820312 1.972656 0.707031 1.972656 0.695312 C 1.980469 0.625 2.058594 0.53125 2.011719 0.488281 C 2.03125 0.429688 2.019531 0.40625 2.003906 0.371094 C 2.019531 0.199219 2.027344 0.121094 1.988281 -0.0507812 C 1.988281 -0.0742188 1.953125 -0.0820312 1.949219 -0.105469 C 1.972656 -0.152344 1.949219 -0.164062 1.925781 -0.183594 C 1.910156 -0.21875 1.886719 -0.25 1.886719 -0.308594 L 1.847656 -0.421875 C 1.808594 -0.523438 1.785156 -0.53125 1.757812 -0.632812 C 1.753906 -0.667969 1.683594 -0.710938 1.695312 -0.746094 C 1.683594 -0.769531 1.648438 -0.777344 1.660156 -0.800781 L 1.597656 -0.84375 L 1.5625 -0.945312 L 1.535156 -1.003906 L 1.488281 -1.082031 L 1.484375 -1.148438 C 1.460938 -1.160156 1.460938 -1.171875 1.457031 -1.207031 C 1.457031 -1.238281 1.421875 -1.273438 1.417969 -1.316406 C 1.382812 -1.40625 1.34375 -1.476562 1.351562 -1.589844 C 1.3125 -1.679688 1.308594 -1.769531 1.339844 -1.839844 C 1.347656 -1.898438 1.394531 -1.933594 1.425781 -1.957031 C 1.449219 -1.992188 1.480469 -2.019531 1.503906 -2.03125 C 1.546875 -2.066406 1.546875 -2.042969 1.648438 -2.082031 L 1.777344 -2.085938 C 1.914062 -2.058594 2.03125 -2.03125 2.066406 -1.972656 L 2.101562 -1.976562 L 2.101562 -1.988281 L 2.15625 -1.988281 L 2.167969 -1.96875 L 2.191406 -1.957031 C 2.191406 -2.003906 2.195312 -2.164062 1.902344 -2.332031 Z M 1.902344 -2.332031 "/></g></g></g><g fill="#737373" fill-opacity="1"><g transform="translate(40.543261, 56.59508)"><g><path d="M -0.480469 5.085938 C -0.4375 5.074219 -0.390625 5.058594 -0.371094 5.046875 C -0.371094 4.988281 -0.363281 4.957031 -0.351562 4.910156 C -0.351562 4.910156 -0.328125 4.90625 -0.328125 4.917969 C -0.316406 4.90625 -0.308594 4.894531 -0.308594 4.882812 C -0.289062 4.828125 -0.28125 4.734375 -0.269531 4.675781 C -0.261719 4.640625 -0.242188 4.574219 -0.253906 4.539062 C -0.28125 4.460938 -0.25 4.355469 -0.253906 4.289062 C -0.246094 4.171875 -0.207031 4.046875 -0.199219 3.953125 C -0.199219 3.917969 -0.210938 3.898438 -0.210938 3.898438 C -0.191406 3.816406 -0.171875 3.757812 -0.152344 3.675781 L -0.199219 3.65625 C -0.113281 3.582031 -0.105469 3.433594 -0.140625 3.402344 C -0.121094 3.355469 -0.109375 3.34375 -0.113281 3.308594 C -0.101562 3.242188 -0.105469 3.195312 -0.0859375 3.101562 C -0.0859375 3.089844 -0.0664062 3.066406 -0.0664062 3.042969 C -0.0625 2.882812 -0.0546875 2.734375 0.0585938 2.492188 L 0.0507812 2.308594 L 0.101562 2.132812 C 0.0898438 2.125 0.0898438 2.101562 0.0898438 2.089844 C 0.109375 2.019531 0.117188 1.949219 0.136719 1.859375 C 0.167969 1.789062 0.195312 1.671875 0.214844 1.558594 C 0.222656 1.5 0.210938 1.441406 0.21875 1.375 C 0.207031 1.375 0.207031 1.375 0.183594 1.363281 C 0.207031 1.363281 0.21875 1.351562 0.230469 1.351562 C 0.214844 1.339844 0.207031 1.339844 0.183594 1.332031 C 0.261719 1.292969 0.320312 1.105469 0.28125 0.949219 C 0.359375 0.933594 0.324219 0.878906 0.332031 0.84375 C 0.351562 0.785156 0.375 0.738281 0.328125 0.71875 C 0.339844 0.707031 0.371094 0.703125 0.371094 0.691406 C 0.390625 0.625 0.402344 0.566406 0.421875 0.484375 C 0.421875 0.484375 0.410156 0.484375 0.398438 0.476562 L 0.386719 0.476562 C 0.5 0.46875 0.484375 0.355469 0.539062 0.285156 C 0.515625 0.296875 0.578125 0.125 0.609375 0.078125 C 0.609375 0.0664062 0.609375 0.0429688 0.585938 0.03125 L 0.652344 0.03125 C 0.683594 -0.0625 0.796875 -0.332031 0.851562 -0.390625 C 0.960938 -0.507812 1.070312 -0.652344 1.15625 -0.804688 C 1.21875 -0.933594 1.332031 -0.992188 1.429688 -1.089844 C 1.496094 -1.136719 1.550781 -1.175781 1.605469 -1.246094 C 1.648438 -1.269531 1.683594 -1.316406 1.714844 -1.351562 L 1.738281 -1.355469 C 1.804688 -1.414062 1.871094 -1.441406 1.972656 -1.488281 C 2.027344 -1.539062 2.164062 -1.554688 2.210938 -1.5 C 2.238281 -1.445312 2.273438 -1.367188 2.277344 -1.296875 C 2.304688 -1.195312 2.261719 -1.113281 2.234375 -1.007812 C 2.234375 -0.988281 2.199219 -0.949219 2.191406 -0.90625 L 2.195312 -0.859375 C 2.128906 -0.742188 2.074219 -0.660156 2.011719 -0.566406 C 1.957031 -0.460938 1.859375 -0.375 1.78125 -0.292969 C 1.730469 -0.222656 1.664062 -0.140625 1.550781 -0.113281 C 1.503906 -0.0976562 1.4375 -0.117188 1.433594 -0.210938 C 1.417969 -0.253906 1.417969 -0.3125 1.347656 -0.308594 C 1.351562 -0.25 1.304688 -0.214844 1.332031 -0.183594 C 1.347656 -0.0703125 1.386719 0.03125 1.476562 0.0742188 L 1.5 0.0859375 C 1.515625 0.152344 1.550781 0.164062 1.597656 0.183594 C 1.667969 0.203125 1.738281 0.234375 1.792969 0.246094 C 1.804688 0.253906 1.839844 0.242188 1.863281 0.242188 C 1.953125 0.191406 2.019531 0.167969 2.109375 0.105469 L 2.339844 -0.109375 C 2.402344 -0.226562 2.492188 -0.324219 2.566406 -0.429688 C 2.605469 -0.542969 2.703125 -0.6875 2.722656 -0.8125 C 2.773438 -0.929688 2.734375 -1.085938 2.726562 -1.214844 C 2.726562 -1.257812 2.710938 -1.304688 2.710938 -1.359375 C 2.71875 -1.382812 2.71875 -1.394531 2.695312 -1.394531 C 2.667969 -1.519531 2.363281 -1.691406 2.351562 -1.6875 C 2.273438 -1.707031 2.238281 -1.730469 2.179688 -1.738281 C 2.109375 -1.746094 2.007812 -1.777344 1.925781 -1.773438 C 1.8125 -1.769531 1.699219 -1.753906 1.5625 -1.679688 L 1.386719 -1.535156 L 1.1875 -1.410156 C 1.164062 -1.398438 1.164062 -1.386719 1.15625 -1.339844 C 1.15625 -1.328125 1.121094 -1.304688 1.113281 -1.292969 C 0.851562 -0.917969 0.75 -0.648438 0.761719 -0.648438 C 0.664062 -0.484375 0.640625 -0.496094 0.609375 -0.4375 C 0.617188 -0.519531 0.636719 -0.585938 0.660156 -0.632812 L 0.660156 -0.65625 C 0.671875 -0.921875 0.703125 -0.96875 0.707031 -1.082031 L 0.730469 -1.082031 C 0.75 -1.210938 0.78125 -1.289062 0.796875 -1.394531 C 0.808594 -1.40625 0.808594 -1.429688 0.820312 -1.441406 C 0.785156 -1.484375 0.78125 -1.507812 0.828125 -1.53125 C 0.835938 -1.566406 0.847656 -1.613281 0.84375 -1.636719 C 0.867188 -1.683594 0.863281 -1.71875 0.851562 -1.75 L 0.8125 -1.898438 C 0.773438 -1.964844 0.726562 -2.03125 0.625 -2.015625 L 0.589844 -2.015625 C 0.519531 -2.023438 0.5 -2 0.492188 -1.917969 C 0.4375 -1.8125 0.417969 -1.722656 0.386719 -1.628906 C 0.359375 -1.480469 0.320312 -1.328125 0.28125 -1.179688 C 0.265625 -1.050781 0.234375 -0.9375 0.226562 -0.820312 C 0.179688 -0.613281 0.164062 -0.417969 0.128906 -0.222656 C 0.121094 -0.121094 0.078125 -0.00390625 0.0625 0.113281 C 0.0234375 0.296875 -0.015625 0.457031 -0.0429688 0.628906 C -0.078125 0.871094 -0.125 1.125 -0.195312 1.367188 C -0.191406 1.414062 -0.203125 1.460938 -0.210938 1.519531 C -0.226562 1.65625 -0.339844 2.234375 -0.421875 2.5 C -0.429688 2.511719 -0.464844 2.558594 -0.441406 2.578125 C -0.414062 2.625 -0.425781 2.683594 -0.457031 2.730469 C -0.476562 2.765625 -0.488281 2.800781 -0.496094 2.84375 C -0.472656 2.84375 -0.460938 2.84375 -0.429688 2.855469 C -0.496094 2.890625 -0.511719 3.007812 -0.464844 3.105469 C -0.484375 3.109375 -0.496094 3.097656 -0.507812 3.097656 C -0.609375 3.671875 -0.679688 4.25 -0.824219 4.835938 L -0.714844 4.957031 L -0.636719 4.964844 C -0.578125 5.019531 -0.527344 5.066406 -0.480469 5.085938 Z M -0.480469 5.085938 "/></g></g></g><g fill="#737373" fill-opacity="1"><g transform="translate(43.682021, 56.462259)"><g><path d="M 0.839844 -2.539062 C 0.910156 -2.496094 0.980469 -2.5 1.035156 -2.523438 C 1.136719 -2.597656 1.234375 -2.671875 1.277344 -2.796875 C 1.316406 -2.925781 1.265625 -3.050781 1.226562 -3.164062 C 1.199219 -3.242188 1.128906 -3.273438 1.003906 -3.253906 C 1.003906 -3.253906 0.960938 -3.253906 0.949219 -3.242188 C 0.804688 -3.15625 0.683594 -3.070312 0.632812 -2.898438 C 0.613281 -2.78125 0.640625 -2.691406 0.710938 -2.613281 C 0.75 -2.582031 0.804688 -2.5625 0.839844 -2.539062 Z M 2.433594 -1.382812 C 2.488281 -1.488281 2.472656 -1.558594 2.449219 -1.578125 C 2.308594 -1.425781 2.164062 -1.292969 2.03125 -1.160156 C 1.867188 -0.992188 1.714844 -0.804688 1.539062 -0.636719 C 1.375 -0.457031 1.175781 -0.289062 1 -0.121094 C 0.914062 -0.0390625 0.8125 0.0117188 0.6875 0.0507812 C 0.695312 -0.0625 0.726562 -0.167969 0.71875 -0.269531 C 0.726562 -0.386719 0.792969 -0.492188 0.753906 -0.59375 C 0.75 -0.613281 0.761719 -0.625 0.773438 -0.648438 C 0.78125 -0.695312 0.804688 -0.742188 0.824219 -0.789062 C 0.863281 -0.941406 0.902344 -1.078125 0.933594 -1.21875 C 0.953125 -1.273438 0.972656 -1.332031 0.96875 -1.402344 C 0.980469 -1.460938 0.976562 -1.527344 0.949219 -1.574219 C 0.925781 -1.617188 0.867188 -1.660156 0.820312 -1.691406 C 0.785156 -1.75 0.703125 -1.777344 0.664062 -1.835938 C 0.628906 -1.890625 0.59375 -1.867188 0.5625 -1.851562 C 0.515625 -1.851562 0.507812 -1.816406 0.519531 -1.773438 L 0.523438 -1.679688 C 0.476562 -1.460938 0.425781 -1.265625 0.390625 -1.058594 C 0.351562 -0.90625 0.3125 -0.757812 0.292969 -0.605469 C 0.246094 -0.398438 0.210938 -0.179688 0.242188 0.0117188 C 0.253906 0.0585938 0.289062 0.078125 0.300781 0.125 C 0.328125 0.144531 0.351562 0.179688 0.363281 0.214844 C 0.375 0.234375 0.378906 0.269531 0.402344 0.28125 C 0.484375 0.335938 0.53125 0.433594 0.648438 0.453125 C 0.730469 0.472656 0.789062 0.503906 0.878906 0.476562 C 0.957031 0.429688 1.035156 0.390625 1.101562 0.355469 C 1.167969 0.328125 1.238281 0.3125 1.28125 0.265625 C 1.347656 0.21875 1.402344 0.167969 1.445312 0.109375 C 1.511719 0.015625 1.585938 -0.078125 1.675781 -0.140625 L 1.730469 -0.199219 C 1.75 -0.222656 1.761719 -0.257812 1.785156 -0.28125 L 1.902344 -0.46875 C 2.050781 -0.703125 2.070312 -0.808594 2.113281 -0.867188 C 2.179688 -0.949219 2.414062 -1.359375 2.421875 -1.371094 Z M 2.433594 -1.382812 "/></g></g></g><g fill="#737373" fill-opacity="1"><g transform="translate(45.987582, 56.364697)"><g><path d="M 0.261719 0.195312 C 0.351562 0.226562 0.398438 0.199219 0.414062 0.0625 C 0.433594 -0.0195312 0.429688 -0.0976562 0.449219 -0.179688 C 0.480469 -0.285156 0.488281 -0.386719 0.527344 -0.503906 C 0.589844 -0.640625 0.675781 -0.773438 0.738281 -0.933594 C 0.8125 -1.074219 0.898438 -1.191406 0.972656 -1.308594 L 1.179688 -1.605469 C 1.234375 -1.664062 1.300781 -1.722656 1.367188 -1.785156 C 1.386719 -1.820312 1.40625 -1.867188 1.441406 -1.878906 C 1.507812 -1.925781 1.574219 -1.953125 1.617188 -2.011719 C 1.683594 -2.074219 1.753906 -2.0625 1.820312 -2.066406 C 1.972656 -2.003906 2.039062 -2.042969 2.039062 -2.042969 L 2.050781 -2.097656 C 2.023438 -2.15625 2 -2.199219 1.953125 -2.230469 C 1.929688 -2.230469 1.917969 -2.253906 1.90625 -2.265625 C 1.859375 -2.308594 1.796875 -2.351562 1.738281 -2.394531 C 1.597656 -2.46875 1.441406 -2.460938 1.296875 -2.339844 C 1.171875 -2.257812 1.050781 -2.160156 0.957031 -2.007812 C 0.878906 -1.925781 0.8125 -1.863281 0.761719 -1.757812 C 0.75 -1.722656 0.707031 -1.6875 0.671875 -1.640625 C 0.671875 -1.699219 0.691406 -1.734375 0.691406 -1.765625 C 0.699219 -1.871094 0.683594 -1.972656 0.644531 -2.0625 C 0.589844 -2.230469 0.496094 -2.285156 0.386719 -2.234375 C 0.351562 -2.234375 0.308594 -2.207031 0.285156 -2.171875 C 0.273438 -2.160156 0.277344 -2.117188 0.265625 -2.09375 C 0.25 -1.929688 0.222656 -1.78125 0.207031 -1.621094 C 0.1875 -1.472656 0.140625 -1.308594 0.121094 -1.148438 C 0.128906 -1.023438 0.0859375 -0.894531 0.0703125 -0.769531 L 0 -0.296875 C -0.0273438 -0.148438 0.03125 -0.0351562 0.0820312 0.078125 C 0.175781 0.117188 0.191406 0.164062 0.261719 0.195312 Z M 0.261719 0.195312 "/></g></g></g><g fill="#737373" fill-opacity="1"><g transform="translate(48.224661, 56.270032)"><g><path d="M 0.839844 -2.539062 C 0.910156 -2.496094 0.980469 -2.5 1.035156 -2.523438 C 1.136719 -2.597656 1.234375 -2.671875 1.277344 -2.796875 C 1.316406 -2.925781 1.265625 -3.050781 1.226562 -3.164062 C 1.199219 -3.242188 1.128906 -3.273438 1.003906 -3.253906 C 1.003906 -3.253906 0.960938 -3.253906 0.949219 -3.242188 C 0.804688 -3.15625 0.683594 -3.070312 0.632812 -2.898438 C 0.613281 -2.78125 0.640625 -2.691406 0.710938 -2.613281 C 0.75 -2.582031 0.804688 -2.5625 0.839844 -2.539062 Z M 2.433594 -1.382812 C 2.488281 -1.488281 2.472656 -1.558594 2.449219 -1.578125 C 2.308594 -1.425781 2.164062 -1.292969 2.03125 -1.160156 C 1.867188 -0.992188 1.714844 -0.804688 1.539062 -0.636719 C 1.375 -0.457031 1.175781 -0.289062 1 -0.121094 C 0.914062 -0.0390625 0.8125 0.0117188 0.6875 0.0507812 C 0.695312 -0.0625 0.726562 -0.167969 0.71875 -0.269531 C 0.726562 -0.386719 0.792969 -0.492188 0.753906 -0.59375 C 0.75 -0.613281 0.761719 -0.625 0.773438 -0.648438 C 0.78125 -0.695312 0.804688 -0.742188 0.824219 -0.789062 C 0.863281 -0.941406 0.902344 -1.078125 0.933594 -1.21875 C 0.953125 -1.273438 0.972656 -1.332031 0.96875 -1.402344 C 0.980469 -1.460938 0.976562 -1.527344 0.949219 -1.574219 C 0.925781 -1.617188 0.867188 -1.660156 0.820312 -1.691406 C 0.785156 -1.75 0.703125 -1.777344 0.664062 -1.835938 C 0.628906 -1.890625 0.59375 -1.867188 0.5625 -1.851562 C 0.515625 -1.851562 0.507812 -1.816406 0.519531 -1.773438 L 0.523438 -1.679688 C 0.476562 -1.460938 0.425781 -1.265625 0.390625 -1.058594 C 0.351562 -0.90625 0.3125 -0.757812 0.292969 -0.605469 C 0.246094 -0.398438 0.210938 -0.179688 0.242188 0.0117188 C 0.253906 0.0585938 0.289062 0.078125 0.300781 0.125 C 0.328125 0.144531 0.351562 0.179688 0.363281 0.214844 C 0.375 0.234375 0.378906 0.269531 0.402344 0.28125 C 0.484375 0.335938 0.53125 0.433594 0.648438 0.453125 C 0.730469 0.472656 0.789062 0.503906 0.878906 0.476562 C 0.957031 0.429688 1.035156 0.390625 1.101562 0.355469 C 1.167969 0.328125 1.238281 0.3125 1.28125 0.265625 C 1.347656 0.21875 1.402344 0.167969 1.445312 0.109375 C 1.511719 0.015625 1.585938 -0.078125 1.675781 -0.140625 L 1.730469 -0.199219 C 1.75 -0.222656 1.761719 -0.257812 1.785156 -0.28125 L 1.902344 -0.46875 C 2.050781 -0.703125 2.070312 -0.808594 2.113281 -0.867188 C 2.179688 -0.949219 2.414062 -1.359375 2.421875 -1.371094 Z M 2.433594 -1.382812 "/></g></g></g><g fill="#737373" fill-opacity="1"><g transform="translate(50.530223, 56.172469)"><g><path d="M 2.238281 -3.867188 C 2.304688 -3.882812 2.453125 -3.910156 2.5 -3.878906 C 2.578125 -3.917969 2.691406 -3.921875 2.761719 -3.925781 L 2.785156 -3.9375 C 2.828125 -4.007812 2.996094 -4.027344 2.957031 -4.140625 C 2.921875 -4.160156 2.867188 -4.113281 2.84375 -4.101562 C 2.609375 -4.042969 2.539062 -4.050781 1.988281 -4.050781 C 1.945312 -4.039062 1.851562 -4.070312 1.691406 -4.074219 C 1.710938 -4.199219 1.742188 -4.257812 1.8125 -4.492188 C 1.863281 -4.640625 1.945312 -4.792969 1.976562 -4.933594 C 2.082031 -5.128906 2.164062 -5.339844 2.246094 -5.5625 C 2.277344 -5.640625 2.308594 -5.699219 2.214844 -5.753906 C 2.191406 -5.789062 2.144531 -5.808594 2.132812 -5.84375 C 2.117188 -5.933594 2.011719 -5.949219 1.917969 -6.003906 C 1.894531 -6.015625 1.871094 -6.015625 1.859375 -6.035156 C 1.8125 -6.046875 1.78125 -6.03125 1.761719 -5.964844 C 1.742188 -5.882812 1.699219 -5.765625 1.679688 -5.6875 C 1.648438 -5.628906 1.617188 -5.601562 1.617188 -5.558594 C 1.554688 -5.417969 1.535156 -5.289062 1.484375 -5.164062 C 1.457031 -5.023438 1.394531 -4.894531 1.363281 -4.78125 C 1.324219 -4.664062 1.28125 -4.558594 1.253906 -4.445312 C 1.1875 -4.328125 1.183594 -4.210938 1.117188 -4.09375 C 1.050781 -4.09375 0.96875 -4.089844 0.867188 -4.074219 L 0.648438 -4.085938 C 0.570312 -4.117188 0.488281 -4.089844 0.421875 -4.054688 C 0.402344 -4.042969 0.367188 -4.050781 0.355469 -4.050781 C 0.355469 -4.050781 0.308594 -4.0625 0.253906 -3.988281 C 0.199219 -3.964844 0.179688 -3.894531 0.179688 -3.859375 C 0.195312 -3.757812 0.320312 -3.742188 0.460938 -3.714844 C 0.679688 -3.699219 0.839844 -3.695312 0.988281 -3.699219 L 0.886719 -3.34375 L 0.570312 -2.183594 C 0.582031 -2.175781 0.582031 -2.152344 0.59375 -2.140625 L 0.574219 -2.140625 C 0.550781 -2.082031 0.519531 -2.046875 0.519531 -2 C 0.480469 -1.851562 0.488281 -1.722656 0.445312 -1.597656 L 0.378906 -1.273438 C 0.363281 -1.136719 0.324219 -0.996094 0.339844 -0.859375 C 0.328125 -0.621094 0.304688 -0.390625 0.359375 -0.164062 C 0.414062 0.0625 0.46875 0.289062 0.601562 0.464844 C 0.625 0.488281 0.652344 0.511719 0.675781 0.542969 C 0.769531 0.640625 0.820312 0.707031 0.921875 0.738281 C 1.085938 0.835938 1.121094 0.820312 1.292969 0.804688 L 1.269531 0.804688 C 1.335938 0.800781 1.359375 0.789062 1.382812 0.753906 C 1.433594 0.660156 1.535156 0.585938 1.496094 0.472656 C 1.496094 0.472656 1.359375 0.546875 1.269531 0.539062 C 1.167969 0.558594 1.15625 0.546875 1.050781 0.492188 L 0.964844 0.40625 C 0.941406 0.382812 0.894531 0.339844 0.890625 0.257812 C 0.867188 0.179688 0.839844 0.101562 0.847656 0.0195312 C 0.84375 -0.0234375 0.84375 -0.0585938 0.796875 -0.0664062 C 0.84375 -0.09375 0.808594 -0.101562 0.785156 -0.125 C 0.839844 -0.136719 0.820312 -0.34375 0.773438 -0.398438 C 0.792969 -0.433594 0.8125 -0.480469 0.824219 -0.515625 C 0.800781 -0.527344 0.789062 -0.535156 0.800781 -0.535156 C 0.8125 -0.550781 0.820312 -0.570312 0.820312 -0.59375 C 0.816406 -0.6875 0.824219 -0.765625 0.855469 -0.871094 C 0.84375 -0.90625 0.851562 -0.960938 0.859375 -1.007812 C 0.859375 -1.042969 0.890625 -1.089844 0.890625 -1.113281 C 0.886719 -1.167969 0.917969 -1.238281 0.882812 -1.296875 C 0.902344 -1.332031 0.9375 -1.367188 0.945312 -1.402344 C 0.953125 -1.527344 0.992188 -1.65625 1.023438 -1.78125 C 1.019531 -1.851562 1.050781 -1.917969 1.082031 -1.988281 C 1.089844 -2.09375 1.140625 -2.210938 1.160156 -2.324219 C 1.167969 -2.371094 1.191406 -2.417969 1.210938 -2.476562 C 1.230469 -2.542969 1.214844 -2.613281 1.246094 -2.695312 C 1.246094 -2.71875 1.234375 -2.738281 1.246094 -2.738281 C 1.3125 -2.765625 1.300781 -2.8125 1.285156 -2.832031 C 1.273438 -2.855469 1.296875 -2.878906 1.296875 -2.902344 C 1.339844 -2.949219 1.371094 -3.03125 1.355469 -3.074219 C 1.378906 -3.113281 1.398438 -3.136719 1.386719 -3.15625 C 1.363281 -3.203125 1.402344 -3.296875 1.449219 -3.320312 L 1.558594 -3.714844 L 1.683594 -3.71875 C 1.785156 -3.734375 1.957031 -3.730469 2.082031 -3.734375 C 2.230469 -3.753906 2.332031 -3.757812 2.390625 -3.761719 C 2.492188 -3.765625 2.597656 -3.78125 2.628906 -3.804688 L 2.800781 -3.835938 C 2.820312 -3.847656 2.832031 -3.859375 2.796875 -3.878906 C 2.570312 -3.847656 2.480469 -3.84375 2.035156 -3.8125 L 2.042969 -3.835938 Z M 2.238281 -3.867188 "/></g></g></g><g fill="#737373" fill-opacity="1"><g transform="translate(52.927095, 56.071042)"><g><path d="M 3.199219 0.171875 L 3.46875 0.128906 C 3.628906 0.0507812 3.785156 0.0117188 3.914062 -0.164062 C 3.914062 -0.164062 3.902344 -0.164062 3.902344 -0.175781 L 4.011719 -0.339844 C 4.066406 -0.34375 4.144531 -0.414062 4.140625 -0.472656 C 4.152344 -0.53125 4.171875 -0.578125 4.230469 -0.578125 C 4.253906 -0.582031 4.273438 -0.59375 4.320312 -0.59375 C 4.273438 -0.605469 4.261719 -0.613281 4.25 -0.625 C 4.292969 -0.652344 4.257812 -0.695312 4.316406 -0.71875 C 4.347656 -0.746094 4.4375 -0.757812 4.390625 -0.835938 L 4.433594 -0.863281 C 4.441406 -0.976562 4.53125 -1.027344 4.585938 -1.097656 C 4.628906 -1.15625 4.636719 -1.257812 4.507812 -1.253906 L 4.355469 -1.097656 C 4.15625 -0.917969 3.949219 -0.75 3.738281 -0.59375 C 3.625 -0.507812 3.515625 -0.421875 3.390625 -0.359375 C 3.203125 -0.261719 2.898438 -0.167969 2.765625 -0.289062 C 2.742188 -0.320312 2.730469 -0.355469 2.714844 -0.402344 C 2.648438 -0.625 2.671875 -0.855469 2.757812 -1.078125 C 2.773438 -1.167969 2.804688 -1.25 2.859375 -1.320312 C 2.921875 -1.519531 2.597656 -1.550781 2.597656 -1.597656 L 2.355469 -1.585938 C 2.324219 -1.5625 2.300781 -1.539062 2.292969 -1.515625 C 2.226562 -1.445312 2.171875 -1.359375 2.105469 -1.289062 C 1.996094 -1.171875 1.898438 -1.03125 1.792969 -0.910156 C 1.671875 -0.78125 1.585938 -0.660156 1.464844 -0.542969 C 1.375 -0.457031 1.320312 -0.375 1.164062 -0.277344 C 1.097656 -0.230469 1.007812 -0.203125 0.9375 -0.234375 C 0.84375 -0.289062 0.882812 -0.449219 0.925781 -0.554688 C 0.957031 -0.636719 1.070312 -0.878906 1.125 -1.019531 C 1.238281 -1.308594 1.296875 -1.472656 1.199219 -1.628906 C 1.164062 -1.683594 1.070312 -1.703125 1.011719 -1.746094 C 0.929688 -1.765625 0.851562 -1.761719 0.761719 -1.734375 C 0.695312 -1.710938 0.636719 -1.671875 0.59375 -1.636719 C 0.5625 -1.613281 0.515625 -1.589844 0.496094 -1.542969 C 0.484375 -1.484375 0.535156 -1.429688 0.582031 -1.351562 C 0.617188 -1.316406 0.710938 -1.332031 0.824219 -1.371094 C 0.859375 -1.292969 0.554688 -0.925781 0.476562 -0.59375 C 0.429688 -0.394531 0.421875 -0.257812 0.546875 -0.046875 C 0.585938 0.0195312 0.878906 0.269531 1.003906 0.253906 C 1.175781 0.234375 1.308594 0.128906 1.464844 0.0507812 C 1.730469 -0.1875 1.972656 -0.4375 2.167969 -0.675781 C 2.191406 -0.640625 2.203125 -0.628906 2.191406 -0.605469 C 2.230469 -0.539062 2.253906 -0.472656 2.304688 -0.40625 C 2.316406 -0.382812 2.339844 -0.363281 2.363281 -0.328125 C 2.402344 -0.238281 2.441406 -0.148438 2.558594 -0.109375 C 2.625 -0.0898438 2.683594 -0.0546875 2.734375 0.0117188 C 2.734375 0.03125 2.792969 0.0546875 2.839844 0.0742188 C 2.875 0.0859375 2.921875 0.105469 2.957031 0.125 C 3 0.125 3.046875 0.144531 3.105469 0.164062 C 3.140625 0.175781 3.164062 0.164062 3.199219 0.171875 Z M 3.199219 0.171875 "/></g></g></g><g fill="#737373" fill-opacity="1"><g transform="translate(57.344187, 55.884127)"><g><path d="M 4.261719 -1.699219 L 4.210938 -1.800781 L 4.175781 -1.824219 C 4.066406 -1.75 3.976562 -1.6875 3.898438 -1.617188 C 3.644531 -1.433594 3.664062 -1.457031 3.398438 -1.277344 C 3.246094 -1.15625 3.078125 -1.046875 2.933594 -0.949219 C 2.777344 -0.828125 2.601562 -0.683594 2.421875 -0.59375 C 2.378906 -0.570312 2.332031 -0.566406 2.296875 -0.554688 C 2.265625 -0.542969 2.242188 -0.539062 2.21875 -0.550781 C 2.160156 -0.582031 2.125 -0.628906 2.109375 -0.671875 C 2.035156 -0.828125 2.027344 -1 2.054688 -1.160156 C 2.066406 -1.183594 2.0625 -1.207031 2.074219 -1.21875 C 2.105469 -1.3125 2.089844 -1.4375 2.089844 -1.4375 C 2.0625 -1.515625 2.015625 -1.570312 1.945312 -1.589844 C 1.808594 -1.597656 1.730469 -1.503906 1.640625 -1.488281 C 1.691406 -1.605469 1.78125 -1.710938 1.738281 -1.867188 C 1.683594 -2.128906 1.40625 -2.164062 1.164062 -2.199219 C 0.949219 -2.167969 0.761719 -2.023438 0.628906 -1.867188 C 0.5 -1.691406 0.359375 -1.546875 0.242188 -1.347656 C 0.21875 -1.324219 0.199219 -1.265625 0.15625 -1.207031 L 0.0820312 -1.066406 C 0.0625 -0.984375 0.03125 -0.925781 0.0195312 -0.859375 C 0.0195312 -0.847656 0.0195312 -0.847656 0.0117188 -0.835938 C -0.0078125 -0.765625 -0.03125 -0.707031 -0.0625 -0.625 C -0.0976562 -0.453125 -0.0585938 -0.304688 0.0507812 -0.171875 C 0.121094 -0.140625 0.214844 -0.0898438 0.238281 -0.0664062 C 0.273438 -0.0585938 0.304688 -0.0585938 0.328125 -0.0585938 C 0.503906 0 0.695312 -0.0078125 0.875 -0.105469 C 1.054688 -0.191406 1.230469 -0.347656 1.363281 -0.457031 C 1.386719 -0.46875 1.398438 -0.503906 1.417969 -0.527344 C 1.5 -0.53125 1.492188 -0.644531 1.570312 -0.695312 C 1.582031 -0.671875 1.585938 -0.648438 1.609375 -0.640625 C 1.644531 -0.585938 1.632812 -0.5625 1.707031 -0.496094 C 1.753906 -0.394531 1.835938 -0.351562 1.910156 -0.265625 C 1.945312 -0.253906 1.96875 -0.210938 2.003906 -0.199219 C 2.027344 -0.175781 2.097656 -0.179688 2.121094 -0.167969 C 2.164062 -0.160156 2.265625 -0.1875 2.3125 -0.1875 C 2.347656 -0.191406 2.402344 -0.214844 2.414062 -0.214844 C 2.449219 -0.21875 2.503906 -0.242188 2.527344 -0.253906 C 2.582031 -0.292969 2.617188 -0.28125 2.683594 -0.320312 C 2.796875 -0.402344 2.898438 -0.429688 2.984375 -0.539062 L 3.25 -0.753906 L 3.414062 -0.910156 C 3.449219 -0.921875 3.523438 -1.019531 3.535156 -1.03125 C 3.589844 -1.054688 3.636719 -1.113281 3.667969 -1.148438 C 3.699219 -1.175781 3.78125 -1.210938 3.835938 -1.261719 C 3.980469 -1.367188 4.15625 -1.523438 4.261719 -1.699219 Z M 1.488281 -1.265625 C 1.328125 -1.074219 1.253906 -0.933594 1.089844 -0.742188 C 0.980469 -0.613281 0.882812 -0.527344 0.734375 -0.464844 C 0.621094 -0.414062 0.417969 -0.394531 0.292969 -0.390625 C 0.339844 -0.621094 0.433594 -0.820312 0.527344 -1.003906 C 0.644531 -1.226562 1.023438 -1.78125 1.363281 -1.851562 C 1.351562 -1.839844 1.28125 -1.335938 1.535156 -1.324219 L 1.542969 -1.324219 C 1.542969 -1.324219 1.5 -1.265625 1.488281 -1.265625 Z M 1.488281 -1.265625 "/></g></g></g><g fill="#737373" fill-opacity="1"><g transform="translate(61.042216, 55.72764)"><g><path d="M 3.410156 -6.71875 C 3.382812 -6.773438 3.382812 -6.832031 3.367188 -6.921875 C 3.378906 -6.933594 3.375 -6.957031 3.363281 -6.96875 L 3.292969 -7.023438 C 3.246094 -7.066406 3.1875 -7.109375 3.128906 -7.128906 C 3.09375 -7.152344 3.035156 -7.171875 2.988281 -7.191406 C 2.828125 -7.230469 2.6875 -7.261719 2.570312 -7.128906 C 2.480469 -7.035156 2.382812 -6.925781 2.285156 -6.832031 C 2.183594 -6.726562 2.089844 -6.570312 2.015625 -6.421875 L 1.605469 -5.578125 C 1.59375 -5.554688 1.570312 -5.554688 1.5625 -5.53125 L 1.476562 -5.332031 L 1.410156 -5.066406 C 1.398438 -5.023438 1.316406 -4.871094 1.292969 -4.855469 C 1.292969 -4.835938 1.050781 -4.125 1.039062 -4.101562 C 0.996094 -4.03125 1 -3.964844 0.980469 -3.894531 C 0.9375 -3.800781 0.90625 -3.699219 0.863281 -3.617188 C 0.824219 -3.453125 0.765625 -3.269531 0.726562 -3.09375 C 0.675781 -2.945312 0.660156 -2.785156 0.628906 -2.65625 C 0.601562 -2.496094 0.59375 -2.4375 0.566406 -2.3125 C 0.546875 -2.21875 0.546875 -2.195312 0.550781 -2.148438 L 0.496094 -1.769531 C 0.4375 -1.3125 0.441406 -1.195312 0.4375 -1.046875 C 0.414062 -0.714844 0.425781 -0.519531 0.46875 -0.238281 C 0.5 -0.113281 0.527344 0.0117188 0.566406 0.113281 C 0.613281 0.214844 0.640625 0.304688 0.703125 0.382812 C 0.773438 0.457031 0.824219 0.527344 0.882812 0.589844 C 0.917969 0.625 1 0.691406 1.058594 0.710938 C 1.269531 0.792969 1.371094 0.777344 1.519531 0.734375 C 1.753906 0.65625 1.859375 0.195312 1.679688 0.285156 C 1.503906 0.417969 1.40625 0.5 1.21875 0.429688 C 1.136719 0.398438 1.027344 0.242188 0.976562 0.128906 C 0.878906 -0.0820312 0.820312 -0.34375 0.796875 -0.652344 C 0.777344 -0.84375 0.808594 -1.15625 0.824219 -1.339844 C 0.839844 -1.488281 0.886719 -1.707031 0.941406 -1.800781 C 1.085938 -1.933594 1.257812 -2.132812 1.378906 -2.277344 L 1.597656 -2.503906 C 1.628906 -2.539062 1.628906 -2.597656 1.683594 -2.644531 C 1.683594 -2.644531 1.695312 -2.65625 1.71875 -2.644531 L 2.300781 -3.449219 C 2.375 -3.566406 3.019531 -4.828125 3.03125 -4.816406 C 3.050781 -4.886719 3.070312 -4.957031 3.058594 -5.023438 C 3.046875 -5.046875 3.019531 -5.078125 3.042969 -5.113281 C 3.0625 -5.136719 3.085938 -5.183594 3.105469 -5.21875 L 3.144531 -5.414062 L 3.261719 -5.582031 L 3.238281 -5.613281 C 3.261719 -5.625 3.335938 -5.722656 3.277344 -5.789062 L 3.367188 -6.363281 C 3.328125 -6.453125 3.410156 -6.445312 3.40625 -6.535156 Z M 2.890625 -6.238281 C 2.867188 -6.023438 2.828125 -5.824219 2.757812 -5.628906 C 2.710938 -5.421875 2.625 -5.222656 2.566406 -5.058594 C 2.460938 -4.816406 2.367188 -4.617188 2.273438 -4.382812 C 2.1875 -4.230469 2.125 -4.09375 2.039062 -3.953125 C 1.976562 -3.84375 1.902344 -3.726562 1.8125 -3.632812 C 1.695312 -3.445312 1.542969 -3.234375 1.414062 -3.054688 C 1.316406 -2.9375 1.1875 -2.738281 1.101562 -2.628906 L 1.15625 -2.953125 C 1.175781 -3.023438 1.207031 -3.058594 1.21875 -3.09375 C 1.292969 -3.257812 1.328125 -3.429688 1.378906 -3.601562 C 1.445312 -3.71875 1.480469 -3.882812 1.523438 -3.988281 C 1.542969 -4.042969 1.53125 -4.089844 1.550781 -4.160156 C 1.546875 -4.214844 1.578125 -4.285156 1.609375 -4.367188 C 1.640625 -4.449219 1.660156 -4.542969 1.714844 -4.644531 C 1.734375 -4.679688 1.753906 -4.738281 1.777344 -4.785156 C 1.816406 -4.914062 1.867188 -5.066406 1.917969 -5.179688 C 1.960938 -5.296875 2.035156 -5.414062 2.085938 -5.53125 C 2.160156 -5.660156 2.269531 -5.789062 2.308594 -5.941406 C 2.359375 -6.089844 2.457031 -6.222656 2.554688 -6.351562 C 2.617188 -6.480469 2.730469 -6.585938 2.828125 -6.695312 C 2.847656 -6.71875 2.859375 -6.742188 2.871094 -6.765625 L 2.945312 -6.835938 C 2.96875 -6.828125 2.980469 -6.828125 2.992188 -6.828125 C 2.957031 -6.632812 2.953125 -6.425781 2.890625 -6.238281 Z M 2.890625 -6.238281 "/></g></g></g></svg>